M48
; DRILL file {KiCad 9.0.2} date 2025-06-26T16:23:08+0200
; FORMAT={-:-/ absolute / inch / decimal}
; #@! TF.CreationDate,2025-06-26T16:23:08+02:00
; #@! TF.GenerationSoftware,Kicad,Pcbnew,9.0.2
; #@! TF.FileFunction,Plated,1,2,PTH
FMAT,2
INCH
; #@! TA.AperFunction,Plated,PTH,ViaDrill
T1C0.0118
; #@! TA.AperFunction,Plated,PTH,ComponentDrill
T2C0.0197
; #@! TA.AperFunction,Plated,PTH,ComponentDrill
T3C0.0295
; #@! TA.AperFunction,Plated,PTH,ComponentDrill
T4C0.0394
; #@! TA.AperFunction,Plated,PTH,ComponentDrill
T5C0.0512
%
G90
G05
T1
X7.5541Y-4.9262
X7.8346Y-4.6457
X8.002Y-4.5302
X8.0118Y-4.5768
X8.0364Y-4.6506
X8.1804Y-4.5854
X8.2087Y-4.4193
X8.2283Y-4.4882
X8.3563Y-4.8425
X8.8287Y-5.0197
X9.2913Y-4.5079
X9.5571Y-4.8327
X9.5571Y-4.8917
X9.5571Y-4.9409
X9.685Y-4.7539
X9.7047Y-5.0098
X9.7638Y-4.3307
X9.813Y-4.8327
X9.813Y-4.8819
X9.813Y-4.9409
X9.8425Y-4.2618
X9.9173Y-4.5276
X9.9803Y-4.5276
X9.9803Y-5.3642
T3
X7.4705Y-4.2717
X7.5492Y-4.2717
T4
X8.0563Y-4.9213
X8.1563Y-4.9213
X8.2563Y-4.9213
X8.3563Y-4.9213
X8.578Y-4.9213
X8.678Y-4.9213
X8.778Y-4.9213
X8.878Y-4.9213
T5
X7.861Y-4.0945
X8.061Y-4.0945
T2
G00X7.2657Y-4.4638
M15
G01X7.2382Y-4.4638
M16
G05
G00X7.2657Y-4.8039
M15
G01X7.2382Y-4.8039
M16
G05
G00X7.4154Y-4.4638
M15
G01X7.3878Y-4.4638
M16
G05
G00X7.4154Y-4.8039
M15
G01X7.3878Y-4.8039
M16
G05
M30
