%TF.GenerationSoftware,KiCad,Pcbnew,9.0.2*%
%TF.CreationDate,2025-06-26T16:23:08+02:00*%
%TF.ProjectId,button-rounded,62757474-6f6e-42d7-926f-756e6465642e,rev?*%
%TF.SameCoordinates,Original*%
%TF.FileFunction,Copper,L2,Bot*%
%TF.FilePolarity,Positive*%
%FSLAX46Y46*%
G04 Gerber Fmt 4.6, Leading zero omitted, Abs format (unit mm)*
G04 Created by KiCad (PCBNEW 9.0.2) date 2025-06-26 16:23:08*
%MOMM*%
%LPD*%
G01*
G04 APERTURE LIST*
G04 Aperture macros list*
%AMRoundRect*
0 Rectangle with rounded corners*
0 $1 Rounding radius*
0 $2 $3 $4 $5 $6 $7 $8 $9 X,Y pos of 4 corners*
0 Add a 4 corners polygon primitive as box body*
4,1,4,$2,$3,$4,$5,$6,$7,$8,$9,$2,$3,0*
0 Add four circle primitives for the rounded corners*
1,1,$1+$1,$2,$3*
1,1,$1+$1,$4,$5*
1,1,$1+$1,$6,$7*
1,1,$1+$1,$8,$9*
0 Add four rect primitives between the rounded corners*
20,1,$1+$1,$2,$3,$4,$5,0*
20,1,$1+$1,$4,$5,$6,$7,0*
20,1,$1+$1,$6,$7,$8,$9,0*
20,1,$1+$1,$8,$9,$2,$3,0*%
G04 Aperture macros list end*
%TA.AperFunction,HeatsinkPad*%
%ADD10O,1.700000X1.000000*%
%TD*%
%TA.AperFunction,ComponentPad*%
%ADD11R,1.700000X1.700000*%
%TD*%
%TA.AperFunction,ComponentPad*%
%ADD12C,1.700000*%
%TD*%
%TA.AperFunction,ComponentPad*%
%ADD13RoundRect,0.650000X0.650000X0.650000X-0.650000X0.650000X-0.650000X-0.650000X0.650000X-0.650000X0*%
%TD*%
%TA.AperFunction,ComponentPad*%
%ADD14C,2.600000*%
%TD*%
%TA.AperFunction,ComponentPad*%
%ADD15RoundRect,0.250000X0.350000X0.625000X-0.350000X0.625000X-0.350000X-0.625000X0.350000X-0.625000X0*%
%TD*%
%TA.AperFunction,ComponentPad*%
%ADD16O,1.200000X1.750000*%
%TD*%
%TA.AperFunction,ViaPad*%
%ADD17C,0.600000*%
%TD*%
%TA.AperFunction,Conductor*%
%ADD18C,0.200000*%
%TD*%
G04 APERTURE END LIST*
D10*
%TO.P,J1,S1,SHIELD*%
%TO.N,Earth*%
X188000000Y-113380000D03*
X184200000Y-113380000D03*
X188000000Y-122020000D03*
X184200000Y-122020000D03*
%TD*%
D11*
%TO.P,J2,1,Pin_1*%
%TO.N,TMS*%
X212250000Y-125000000D03*
D12*
%TO.P,J2,2,Pin_2*%
%TO.N,TDI*%
X209710000Y-125000000D03*
%TO.P,J2,3,Pin_3*%
%TO.N,TCK*%
X207170000Y-125000000D03*
%TO.P,J2,4,Pin_4*%
%TO.N,TDO*%
X204630000Y-125000000D03*
%TD*%
D13*
%TO.P,TH1,1*%
%TO.N,TEMP*%
X204750000Y-104000000D03*
D14*
%TO.P,TH1,2*%
%TO.N,GND*%
X199670000Y-104000000D03*
%TD*%
D15*
%TO.P,BT1,1,+*%
%TO.N,+BATT*%
X191750000Y-108500000D03*
D16*
%TO.P,BT1,2,-*%
%TO.N,GND*%
X189750000Y-108500000D03*
%TD*%
D11*
%TO.P,J3,1,Pin_1*%
%TO.N,+3V3*%
X225500000Y-125000000D03*
D12*
%TO.P,J3,2,Pin_2*%
%TO.N,/TX*%
X222960000Y-125000000D03*
%TO.P,J3,3,Pin_3*%
%TO.N,/RX*%
X220420000Y-125000000D03*
%TO.P,J3,4,Pin_4*%
%TO.N,GND*%
X217880000Y-125000000D03*
%TD*%
D17*
%TO.N,+BATT*%
X199000000Y-118000000D03*
X191875000Y-125125000D03*
%TO.N,+3V3*%
X248000000Y-110000000D03*
%TO.N,GND*%
X242750000Y-122750000D03*
X253500000Y-136250000D03*
X212250000Y-123000000D03*
X242750000Y-125500000D03*
X251900000Y-115000000D03*
X203500000Y-116250000D03*
X208500000Y-112250000D03*
X253500000Y-115000000D03*
X246000000Y-120750000D03*
X236000000Y-114500000D03*
X246500000Y-127250000D03*
X203250000Y-115067500D03*
X242750000Y-124250000D03*
X224250000Y-127500000D03*
X249250000Y-122750000D03*
X249250000Y-124000000D03*
X207781250Y-116468750D03*
X249250000Y-125500000D03*
%TO.N,+VSW*%
X204125000Y-118125000D03*
X250000000Y-108250000D03*
X209000000Y-114000000D03*
%TD*%
D18*
%TO.N,+BATT*%
X191875000Y-125125000D02*
X199000000Y-118000000D01*
X192545495Y-111545495D02*
X199000000Y-118000000D01*
X191750000Y-109625000D02*
X191750000Y-108500000D01*
X191750000Y-109625000D02*
G75*
G03*
X192545493Y-111545497I2716000J0D01*
G01*
%TO.N,+3V3*%
X248000000Y-110000000D02*
X230194543Y-110000000D01*
X225500000Y-114694543D02*
X225500000Y-125000000D01*
X226875000Y-111375000D02*
G75*
G03*
X225500018Y-114694543I3319500J-3319500D01*
G01*
X230194543Y-110000000D02*
G75*
G03*
X226874987Y-111374987I-43J-4694500D01*
G01*
%TO.N,GND*%
X204512188Y-114737811D02*
X206469669Y-112780330D01*
X203716250Y-115067500D02*
X203250000Y-115067500D01*
X208500000Y-112250000D02*
X207750000Y-112250000D01*
X204512188Y-114737811D02*
G75*
G02*
X203716250Y-115067543I-795988J795911D01*
G01*
X207750000Y-112250000D02*
G75*
G03*
X206469661Y-112780322I0J-1810700D01*
G01*
%TO.N,+VSW*%
X214246036Y-114000000D02*
X209000000Y-114000000D01*
X218093792Y-112406207D02*
X220656207Y-109843792D01*
X250000000Y-108250000D02*
X224503963Y-108250000D01*
X208625000Y-114000000D02*
X209000000Y-114000000D01*
X207984834Y-114265165D02*
X204125000Y-118125000D01*
X208625000Y-114000000D02*
G75*
G03*
X207984841Y-114265172I0J-905300D01*
G01*
X218093792Y-112406207D02*
G75*
G02*
X214246036Y-114000010I-3847792J3847807D01*
G01*
X224503963Y-108250000D02*
G75*
G03*
X220656236Y-109843821I37J-5441500D01*
G01*
%TD*%
%TA.AperFunction,Conductor*%
%TO.N,GND*%
G36*
X260504418Y-58000816D02*
G01*
X260704561Y-58015130D01*
X260722063Y-58017647D01*
X260913797Y-58059355D01*
X260930755Y-58064334D01*
X261114609Y-58132909D01*
X261130701Y-58140259D01*
X261302904Y-58234288D01*
X261317784Y-58243849D01*
X261474867Y-58361441D01*
X261488237Y-58373027D01*
X261626972Y-58511762D01*
X261638558Y-58525132D01*
X261756146Y-58682210D01*
X261765711Y-58697095D01*
X261859740Y-58869298D01*
X261867090Y-58885390D01*
X261935662Y-59069236D01*
X261940646Y-59086212D01*
X261982351Y-59277931D01*
X261984869Y-59295442D01*
X261999184Y-59495580D01*
X261999500Y-59504427D01*
X261999500Y-111495572D01*
X261999184Y-111504419D01*
X261984869Y-111704557D01*
X261982351Y-111722068D01*
X261940646Y-111913787D01*
X261935662Y-111930763D01*
X261867090Y-112114609D01*
X261859740Y-112130701D01*
X261765711Y-112302904D01*
X261756146Y-112317789D01*
X261638558Y-112474867D01*
X261626972Y-112488237D01*
X261488237Y-112626972D01*
X261474867Y-112638558D01*
X261317789Y-112756146D01*
X261302904Y-112765711D01*
X261130701Y-112859740D01*
X261114609Y-112867090D01*
X260930763Y-112935662D01*
X260913787Y-112940646D01*
X260722068Y-112982351D01*
X260704557Y-112984869D01*
X260523779Y-112997799D01*
X260504417Y-112999184D01*
X260495572Y-112999500D01*
X256848746Y-112999500D01*
X256730409Y-113013869D01*
X256548449Y-113035963D01*
X256429602Y-113065255D01*
X256254727Y-113108358D01*
X255971882Y-113215628D01*
X255704035Y-113356206D01*
X255704026Y-113356212D01*
X255455078Y-113528047D01*
X255455072Y-113528052D01*
X255228648Y-113728646D01*
X255228646Y-113728648D01*
X255028052Y-113955072D01*
X255028047Y-113955078D01*
X254856212Y-114204026D01*
X254856206Y-114204035D01*
X254715628Y-114471882D01*
X254608358Y-114754727D01*
X254578200Y-114877085D01*
X254535963Y-115048449D01*
X254521377Y-115168568D01*
X254499500Y-115348745D01*
X254499500Y-135495572D01*
X254499184Y-135504418D01*
X254499184Y-135504419D01*
X254484869Y-135704557D01*
X254482351Y-135722068D01*
X254440646Y-135913787D01*
X254435662Y-135930763D01*
X254367090Y-136114609D01*
X254359740Y-136130701D01*
X254265711Y-136302904D01*
X254256146Y-136317789D01*
X254138558Y-136474867D01*
X254126972Y-136488237D01*
X253988237Y-136626972D01*
X253974867Y-136638558D01*
X253817789Y-136756146D01*
X253802904Y-136765711D01*
X253630701Y-136859740D01*
X253614609Y-136867090D01*
X253430763Y-136935662D01*
X253413787Y-136940646D01*
X253222068Y-136982351D01*
X253204557Y-136984869D01*
X253023779Y-136997799D01*
X253004417Y-136999184D01*
X252995572Y-136999500D01*
X184504428Y-136999500D01*
X184495582Y-136999184D01*
X184473622Y-136997613D01*
X184295442Y-136984869D01*
X184277931Y-136982351D01*
X184086212Y-136940646D01*
X184069236Y-136935662D01*
X183885390Y-136867090D01*
X183869298Y-136859740D01*
X183697095Y-136765711D01*
X183682210Y-136756146D01*
X183525132Y-136638558D01*
X183511762Y-136626972D01*
X183373027Y-136488237D01*
X183361441Y-136474867D01*
X183243849Y-136317784D01*
X183234288Y-136302904D01*
X183140259Y-136130701D01*
X183132909Y-136114609D01*
X183072091Y-135951551D01*
X183064334Y-135930755D01*
X183059355Y-135913797D01*
X183017647Y-135722063D01*
X183015130Y-135704556D01*
X183000816Y-135504418D01*
X183000500Y-135495572D01*
X183000500Y-130938389D01*
X184124500Y-130938389D01*
X184124500Y-131061610D01*
X184148535Y-131182444D01*
X184148538Y-131182454D01*
X184195687Y-131296283D01*
X184195692Y-131296292D01*
X184264141Y-131398732D01*
X184264144Y-131398736D01*
X184351263Y-131485855D01*
X184351267Y-131485858D01*
X184453707Y-131554307D01*
X184453713Y-131554310D01*
X184453714Y-131554311D01*
X184567548Y-131601463D01*
X184688389Y-131625499D01*
X184688393Y-131625500D01*
X184688394Y-131625500D01*
X184811607Y-131625500D01*
X184811608Y-131625499D01*
X184932452Y-131601463D01*
X185046286Y-131554311D01*
X185148733Y-131485858D01*
X185235858Y-131398733D01*
X185304311Y-131296286D01*
X185351463Y-131182452D01*
X185375500Y-131061606D01*
X185375500Y-130938394D01*
X185351463Y-130817548D01*
X185304311Y-130703714D01*
X185304310Y-130703713D01*
X185304307Y-130703707D01*
X185235858Y-130601267D01*
X185235855Y-130601263D01*
X185148736Y-130514144D01*
X185148732Y-130514141D01*
X185046292Y-130445692D01*
X185046283Y-130445687D01*
X184932454Y-130398538D01*
X184932455Y-130398538D01*
X184932452Y-130398537D01*
X184932448Y-130398536D01*
X184932444Y-130398535D01*
X184811610Y-130374500D01*
X184811606Y-130374500D01*
X184688394Y-130374500D01*
X184688389Y-130374500D01*
X184567555Y-130398535D01*
X184567545Y-130398538D01*
X184453716Y-130445687D01*
X184453707Y-130445692D01*
X184351267Y-130514141D01*
X184351263Y-130514144D01*
X184264144Y-130601263D01*
X184264141Y-130601267D01*
X184195692Y-130703707D01*
X184195687Y-130703716D01*
X184148538Y-130817545D01*
X184148535Y-130817555D01*
X184124500Y-130938389D01*
X183000500Y-130938389D01*
X183000500Y-127938389D01*
X184124500Y-127938389D01*
X184124500Y-128061610D01*
X184148535Y-128182444D01*
X184148538Y-128182454D01*
X184195687Y-128296283D01*
X184195692Y-128296292D01*
X184264141Y-128398732D01*
X184264144Y-128398736D01*
X184351263Y-128485855D01*
X184351267Y-128485858D01*
X184453707Y-128554307D01*
X184453713Y-128554310D01*
X184453714Y-128554311D01*
X184567548Y-128601463D01*
X184688389Y-128625499D01*
X184688393Y-128625500D01*
X184688394Y-128625500D01*
X184811607Y-128625500D01*
X184811608Y-128625499D01*
X184932452Y-128601463D01*
X185046286Y-128554311D01*
X185148733Y-128485858D01*
X185235858Y-128398733D01*
X185304311Y-128296286D01*
X185351463Y-128182452D01*
X185375500Y-128061606D01*
X185375500Y-127938394D01*
X185351463Y-127817548D01*
X185304311Y-127703714D01*
X185304310Y-127703713D01*
X185304307Y-127703707D01*
X185235858Y-127601267D01*
X185235855Y-127601263D01*
X185148736Y-127514144D01*
X185148732Y-127514141D01*
X185046292Y-127445692D01*
X185046283Y-127445687D01*
X184932454Y-127398538D01*
X184932455Y-127398538D01*
X184932452Y-127398537D01*
X184932448Y-127398536D01*
X184932444Y-127398535D01*
X184811610Y-127374500D01*
X184811606Y-127374500D01*
X184688394Y-127374500D01*
X184688389Y-127374500D01*
X184567555Y-127398535D01*
X184567545Y-127398538D01*
X184453716Y-127445687D01*
X184453707Y-127445692D01*
X184351267Y-127514141D01*
X184351263Y-127514144D01*
X184264144Y-127601263D01*
X184264141Y-127601267D01*
X184195692Y-127703707D01*
X184195687Y-127703716D01*
X184148538Y-127817545D01*
X184148535Y-127817555D01*
X184124500Y-127938389D01*
X183000500Y-127938389D01*
X183000500Y-122884784D01*
X183020185Y-122817745D01*
X183072989Y-122771990D01*
X183142147Y-122762046D01*
X183205703Y-122791071D01*
X183212181Y-122797103D01*
X183212214Y-122797136D01*
X183212218Y-122797139D01*
X183376079Y-122906628D01*
X183376092Y-122906635D01*
X183558160Y-122982049D01*
X183558165Y-122982051D01*
X183558169Y-122982051D01*
X183558170Y-122982052D01*
X183751456Y-123020500D01*
X183751459Y-123020500D01*
X184648543Y-123020500D01*
X184778582Y-122994632D01*
X184841835Y-122982051D01*
X185023914Y-122906632D01*
X185187782Y-122797139D01*
X185327139Y-122657782D01*
X185436632Y-122493914D01*
X185512051Y-122311835D01*
X185550500Y-122118543D01*
X186649499Y-122118543D01*
X186687947Y-122311829D01*
X186687950Y-122311839D01*
X186763364Y-122493907D01*
X186763371Y-122493920D01*
X186872860Y-122657781D01*
X186872863Y-122657785D01*
X187012214Y-122797136D01*
X187012218Y-122797139D01*
X187176079Y-122906628D01*
X187176092Y-122906635D01*
X187358160Y-122982049D01*
X187358165Y-122982051D01*
X187358169Y-122982051D01*
X187358170Y-122982052D01*
X187551456Y-123020500D01*
X187551459Y-123020500D01*
X188448543Y-123020500D01*
X188578582Y-122994632D01*
X188641835Y-122982051D01*
X188823914Y-122906632D01*
X188987782Y-122797139D01*
X189127139Y-122657782D01*
X189236632Y-122493914D01*
X189312051Y-122311835D01*
X189350500Y-122118541D01*
X189350500Y-121921459D01*
X189350500Y-121921456D01*
X189312052Y-121728170D01*
X189312051Y-121728169D01*
X189312051Y-121728165D01*
X189312049Y-121728160D01*
X189236635Y-121546092D01*
X189236628Y-121546079D01*
X189127139Y-121382218D01*
X189127136Y-121382214D01*
X188987785Y-121242863D01*
X188987781Y-121242860D01*
X188823920Y-121133371D01*
X188823907Y-121133364D01*
X188641839Y-121057950D01*
X188641829Y-121057947D01*
X188448543Y-121019500D01*
X188448541Y-121019500D01*
X187551459Y-121019500D01*
X187551457Y-121019500D01*
X187358170Y-121057947D01*
X187358160Y-121057950D01*
X187176092Y-121133364D01*
X187176079Y-121133371D01*
X187012218Y-121242860D01*
X187012214Y-121242863D01*
X186872863Y-121382214D01*
X186872860Y-121382218D01*
X186763371Y-121546079D01*
X186763364Y-121546092D01*
X186687950Y-121728160D01*
X186687947Y-121728170D01*
X186649500Y-121921456D01*
X186649500Y-121921459D01*
X186649500Y-122118541D01*
X186649500Y-122118543D01*
X186649499Y-122118543D01*
X185550500Y-122118543D01*
X185550500Y-122118541D01*
X185550500Y-121921459D01*
X185550500Y-121921456D01*
X185512052Y-121728170D01*
X185512051Y-121728169D01*
X185512051Y-121728165D01*
X185512049Y-121728160D01*
X185436635Y-121546092D01*
X185436628Y-121546079D01*
X185327139Y-121382218D01*
X185327136Y-121382214D01*
X185187785Y-121242863D01*
X185187781Y-121242860D01*
X185023920Y-121133371D01*
X185023907Y-121133364D01*
X184841839Y-121057950D01*
X184841829Y-121057947D01*
X184648543Y-121019500D01*
X184648541Y-121019500D01*
X183751459Y-121019500D01*
X183751457Y-121019500D01*
X183558170Y-121057947D01*
X183558160Y-121057950D01*
X183376092Y-121133364D01*
X183376079Y-121133371D01*
X183212218Y-121242860D01*
X183212214Y-121242863D01*
X183212181Y-121242897D01*
X183212159Y-121242908D01*
X183207508Y-121246726D01*
X183206784Y-121245843D01*
X183150858Y-121276382D01*
X183081166Y-121271398D01*
X183025233Y-121229526D01*
X183000816Y-121164062D01*
X183000500Y-121155216D01*
X183000500Y-114244784D01*
X183020185Y-114177745D01*
X183072989Y-114131990D01*
X183142147Y-114122046D01*
X183205703Y-114151071D01*
X183212181Y-114157103D01*
X183212214Y-114157136D01*
X183212218Y-114157139D01*
X183376079Y-114266628D01*
X183376092Y-114266635D01*
X183558160Y-114342049D01*
X183558165Y-114342051D01*
X183558169Y-114342051D01*
X183558170Y-114342052D01*
X183751456Y-114380500D01*
X183751459Y-114380500D01*
X184648543Y-114380500D01*
X184778582Y-114354632D01*
X184841835Y-114342051D01*
X185023914Y-114266632D01*
X185187782Y-114157139D01*
X185327139Y-114017782D01*
X185436632Y-113853914D01*
X185452049Y-113816695D01*
X185465437Y-113784373D01*
X185512051Y-113671835D01*
X185524632Y-113608582D01*
X185550500Y-113478543D01*
X186649499Y-113478543D01*
X186687947Y-113671829D01*
X186687950Y-113671839D01*
X186763364Y-113853907D01*
X186763371Y-113853920D01*
X186872860Y-114017781D01*
X186872863Y-114017785D01*
X187012214Y-114157136D01*
X187012218Y-114157139D01*
X187176079Y-114266628D01*
X187176092Y-114266635D01*
X187358160Y-114342049D01*
X187358165Y-114342051D01*
X187358169Y-114342051D01*
X187358170Y-114342052D01*
X187551456Y-114380500D01*
X187551459Y-114380500D01*
X188448543Y-114380500D01*
X188578582Y-114354632D01*
X188641835Y-114342051D01*
X188823914Y-114266632D01*
X188987782Y-114157139D01*
X189127139Y-114017782D01*
X189236632Y-113853914D01*
X189252049Y-113816695D01*
X189265437Y-113784373D01*
X189312051Y-113671835D01*
X189324632Y-113608582D01*
X189350500Y-113478543D01*
X189350500Y-113281456D01*
X189312052Y-113088170D01*
X189312051Y-113088169D01*
X189312051Y-113088165D01*
X189294140Y-113044924D01*
X189236635Y-112906092D01*
X189236628Y-112906079D01*
X189127139Y-112742218D01*
X189127136Y-112742214D01*
X188987785Y-112602863D01*
X188987781Y-112602860D01*
X188823920Y-112493371D01*
X188823907Y-112493364D01*
X188641839Y-112417950D01*
X188641829Y-112417947D01*
X188448543Y-112379500D01*
X188448541Y-112379500D01*
X187551459Y-112379500D01*
X187551457Y-112379500D01*
X187358170Y-112417947D01*
X187358160Y-112417950D01*
X187176092Y-112493364D01*
X187176079Y-112493371D01*
X187012218Y-112602860D01*
X187012214Y-112602863D01*
X186872863Y-112742214D01*
X186872860Y-112742218D01*
X186763371Y-112906079D01*
X186763364Y-112906092D01*
X186687950Y-113088160D01*
X186687947Y-113088170D01*
X186649500Y-113281456D01*
X186649500Y-113281459D01*
X186649500Y-113478541D01*
X186649500Y-113478543D01*
X186649499Y-113478543D01*
X185550500Y-113478543D01*
X185550500Y-113281456D01*
X185512052Y-113088170D01*
X185512051Y-113088169D01*
X185512051Y-113088165D01*
X185494140Y-113044924D01*
X185436635Y-112906092D01*
X185436628Y-112906079D01*
X185327139Y-112742218D01*
X185327136Y-112742214D01*
X185187785Y-112602863D01*
X185187781Y-112602860D01*
X185023920Y-112493371D01*
X185023907Y-112493364D01*
X184841839Y-112417950D01*
X184841829Y-112417947D01*
X184648543Y-112379500D01*
X184648541Y-112379500D01*
X183751459Y-112379500D01*
X183751457Y-112379500D01*
X183558170Y-112417947D01*
X183558160Y-112417950D01*
X183376092Y-112493364D01*
X183376079Y-112493371D01*
X183212218Y-112602860D01*
X183212214Y-112602863D01*
X183212181Y-112602897D01*
X183212159Y-112602908D01*
X183207508Y-112606726D01*
X183206784Y-112605843D01*
X183150858Y-112636382D01*
X183081166Y-112631398D01*
X183025233Y-112589526D01*
X183000816Y-112524062D01*
X183000500Y-112515216D01*
X183000500Y-108138428D01*
X188650000Y-108138428D01*
X188650000Y-108250000D01*
X189469670Y-108250000D01*
X189449925Y-108269745D01*
X189400556Y-108355255D01*
X189375000Y-108450630D01*
X189375000Y-108549370D01*
X189400556Y-108644745D01*
X189449925Y-108730255D01*
X189469670Y-108750000D01*
X188650000Y-108750000D01*
X188650000Y-108861571D01*
X188677085Y-109032584D01*
X188730591Y-109197257D01*
X188809195Y-109351524D01*
X188910967Y-109491602D01*
X189033397Y-109614032D01*
X189173475Y-109715804D01*
X189327744Y-109794408D01*
X189492415Y-109847914D01*
X189492414Y-109847914D01*
X189499999Y-109849115D01*
X189500000Y-109849114D01*
X189500000Y-108780330D01*
X189519745Y-108800075D01*
X189605255Y-108849444D01*
X189700630Y-108875000D01*
X189799370Y-108875000D01*
X189894745Y-108849444D01*
X189980255Y-108800075D01*
X190000000Y-108780330D01*
X190000000Y-109849115D01*
X190007584Y-109847914D01*
X190172255Y-109794408D01*
X190326524Y-109715804D01*
X190466598Y-109614035D01*
X190574199Y-109506434D01*
X190635522Y-109472949D01*
X190705214Y-109477933D01*
X190761148Y-109519804D01*
X190767420Y-109529019D01*
X190802211Y-109585426D01*
X190807288Y-109593656D01*
X190931344Y-109717712D01*
X191069392Y-109802860D01*
X191080671Y-109809817D01*
X191087216Y-109812869D01*
X191086597Y-109814195D01*
X191137352Y-109849332D01*
X191158556Y-109889863D01*
X191158587Y-109889852D01*
X191158702Y-109890142D01*
X191159927Y-109892483D01*
X191160742Y-109895273D01*
X191213904Y-110028980D01*
X191218176Y-110036419D01*
X191218181Y-110036427D01*
X191218187Y-110036437D01*
X191244419Y-110073168D01*
X191276222Y-110117700D01*
X191276225Y-110117703D01*
X191385438Y-110211365D01*
X191385439Y-110211365D01*
X191385440Y-110211366D01*
X191516622Y-110270467D01*
X191519739Y-110271365D01*
X191526826Y-110273407D01*
X191526641Y-110274046D01*
X191584437Y-110308618D01*
X191612041Y-110356794D01*
X191691224Y-110617828D01*
X191801900Y-110885023D01*
X191801902Y-110885028D01*
X191938230Y-111140080D01*
X192098909Y-111380553D01*
X192282376Y-111604109D01*
X192282377Y-111604110D01*
X192384628Y-111706361D01*
X192416626Y-111738360D01*
X192416627Y-111738360D01*
X192434068Y-111755801D01*
X198015312Y-117337046D01*
X198048797Y-117398369D01*
X198045022Y-117464668D01*
X198021911Y-117532593D01*
X198008657Y-117675862D01*
X198036303Y-117817053D01*
X198036305Y-117817063D01*
X198039256Y-117825508D01*
X198039257Y-117825510D01*
X198059824Y-117875585D01*
X198059825Y-117875586D01*
X198090080Y-117921158D01*
X198095580Y-117929441D01*
X198116260Y-117996180D01*
X198101110Y-118057445D01*
X198085146Y-118086686D01*
X198042597Y-118164618D01*
X198042595Y-118164623D01*
X198039743Y-118172269D01*
X198015909Y-118259161D01*
X198015908Y-118259165D01*
X198010776Y-118402953D01*
X198036614Y-118504179D01*
X198047105Y-118545277D01*
X198044612Y-118615102D01*
X198014638Y-118663626D01*
X192537951Y-124140313D01*
X192476628Y-124173798D01*
X192410320Y-124170020D01*
X192342442Y-124146919D01*
X192342434Y-124146918D01*
X192199176Y-124133656D01*
X192199172Y-124133656D01*
X192199171Y-124133656D01*
X192057970Y-124161294D01*
X192049511Y-124164249D01*
X191999410Y-124184825D01*
X191875853Y-124266858D01*
X191875207Y-124265886D01*
X191835524Y-124285024D01*
X191833044Y-124285635D01*
X191811985Y-124291034D01*
X191723544Y-124313709D01*
X191686141Y-124324857D01*
X191684433Y-124325438D01*
X191647976Y-124339447D01*
X191584447Y-124366719D01*
X191555567Y-124380211D01*
X191554261Y-124380872D01*
X191526215Y-124396200D01*
X191462542Y-124433665D01*
X191450352Y-124441072D01*
X191449829Y-124441401D01*
X191449804Y-124441417D01*
X191395571Y-124480671D01*
X191393729Y-124482323D01*
X191379860Y-124493086D01*
X191364721Y-124503203D01*
X191364712Y-124503210D01*
X191253209Y-124614712D01*
X191165609Y-124745814D01*
X191165602Y-124745827D01*
X191105264Y-124891498D01*
X191105261Y-124891510D01*
X191074500Y-125046153D01*
X191074500Y-125203846D01*
X191105261Y-125358489D01*
X191105264Y-125358501D01*
X191165602Y-125504172D01*
X191165609Y-125504185D01*
X191253210Y-125635288D01*
X191253213Y-125635292D01*
X191364707Y-125746786D01*
X191364711Y-125746789D01*
X191495814Y-125834390D01*
X191495827Y-125834397D01*
X191605422Y-125879792D01*
X191641503Y-125894737D01*
X191796153Y-125925499D01*
X191796156Y-125925500D01*
X191796158Y-125925500D01*
X191953844Y-125925500D01*
X191953845Y-125925499D01*
X192108497Y-125894737D01*
X192254179Y-125834394D01*
X192385289Y-125746789D01*
X192496789Y-125635289D01*
X192537303Y-125574653D01*
X192543760Y-125565856D01*
X192565756Y-125538496D01*
X192601637Y-125477858D01*
X192616266Y-125451354D01*
X192616911Y-125450098D01*
X192630126Y-125422315D01*
X192657025Y-125361021D01*
X192671692Y-125323631D01*
X192672298Y-125321885D01*
X192683846Y-125283845D01*
X192713803Y-125169115D01*
X192714833Y-125165029D01*
X192739903Y-125116986D01*
X192739368Y-125116555D01*
X192763440Y-125086686D01*
X192763443Y-125086681D01*
X192832391Y-124960407D01*
X192832391Y-124960405D01*
X192832394Y-124960401D01*
X192835252Y-124952738D01*
X192851443Y-124893713D01*
X203279500Y-124893713D01*
X203279500Y-125106286D01*
X203312735Y-125316127D01*
X203312754Y-125316243D01*
X203373820Y-125504185D01*
X203378444Y-125518414D01*
X203474951Y-125707820D01*
X203599890Y-125879786D01*
X203750213Y-126030109D01*
X203922179Y-126155048D01*
X203922181Y-126155049D01*
X203922184Y-126155051D01*
X204111588Y-126251557D01*
X204313757Y-126317246D01*
X204523713Y-126350500D01*
X204523714Y-126350500D01*
X204736286Y-126350500D01*
X204736287Y-126350500D01*
X204946243Y-126317246D01*
X205148412Y-126251557D01*
X205337816Y-126155051D01*
X205424138Y-126092335D01*
X205509786Y-126030109D01*
X205509788Y-126030106D01*
X205509792Y-126030104D01*
X205660104Y-125879792D01*
X205660106Y-125879788D01*
X205660109Y-125879786D01*
X205785048Y-125707820D01*
X205785050Y-125707817D01*
X205785051Y-125707816D01*
X205789514Y-125699054D01*
X205837488Y-125648259D01*
X205905308Y-125631463D01*
X205971444Y-125653999D01*
X206010486Y-125699056D01*
X206014951Y-125707820D01*
X206139890Y-125879786D01*
X206290213Y-126030109D01*
X206462179Y-126155048D01*
X206462181Y-126155049D01*
X206462184Y-126155051D01*
X206651588Y-126251557D01*
X206853757Y-126317246D01*
X207063713Y-126350500D01*
X207063714Y-126350500D01*
X207276286Y-126350500D01*
X207276287Y-126350500D01*
X207486243Y-126317246D01*
X207688412Y-126251557D01*
X207877816Y-126155051D01*
X207964138Y-126092335D01*
X208049786Y-126030109D01*
X208049788Y-126030106D01*
X208049792Y-126030104D01*
X208200104Y-125879792D01*
X208200106Y-125879788D01*
X208200109Y-125879786D01*
X208325048Y-125707820D01*
X208325050Y-125707817D01*
X208325051Y-125707816D01*
X208329514Y-125699054D01*
X208377488Y-125648259D01*
X208445308Y-125631463D01*
X208511444Y-125653999D01*
X208550486Y-125699056D01*
X208554951Y-125707820D01*
X208679890Y-125879786D01*
X208830213Y-126030109D01*
X209002179Y-126155048D01*
X209002181Y-126155049D01*
X209002184Y-126155051D01*
X209191588Y-126251557D01*
X209393757Y-126317246D01*
X209603713Y-126350500D01*
X209603714Y-126350500D01*
X209816286Y-126350500D01*
X209816287Y-126350500D01*
X210026243Y-126317246D01*
X210228412Y-126251557D01*
X210417816Y-126155051D01*
X210589792Y-126030104D01*
X210703329Y-125916566D01*
X210764648Y-125883084D01*
X210834340Y-125888068D01*
X210890274Y-125929939D01*
X210907189Y-125960917D01*
X210956202Y-126092328D01*
X210956206Y-126092335D01*
X211042452Y-126207544D01*
X211042455Y-126207547D01*
X211157664Y-126293793D01*
X211157671Y-126293797D01*
X211292517Y-126344091D01*
X211292516Y-126344091D01*
X211299444Y-126344835D01*
X211352127Y-126350500D01*
X213147872Y-126350499D01*
X213207483Y-126344091D01*
X213342331Y-126293796D01*
X213457546Y-126207546D01*
X213543796Y-126092331D01*
X213594091Y-125957483D01*
X213600500Y-125897873D01*
X213600499Y-124893753D01*
X216530000Y-124893753D01*
X216530000Y-125106246D01*
X216563242Y-125316127D01*
X216563242Y-125316130D01*
X216628904Y-125518217D01*
X216725375Y-125707550D01*
X216764728Y-125761716D01*
X217397037Y-125129408D01*
X217414075Y-125192993D01*
X217479901Y-125307007D01*
X217572993Y-125400099D01*
X217687007Y-125465925D01*
X217750590Y-125482962D01*
X217118282Y-126115269D01*
X217118282Y-126115270D01*
X217172449Y-126154624D01*
X217361782Y-126251095D01*
X217563870Y-126316757D01*
X217773754Y-126350000D01*
X217986246Y-126350000D01*
X218196127Y-126316757D01*
X218196130Y-126316757D01*
X218398217Y-126251095D01*
X218587554Y-126154622D01*
X218641716Y-126115270D01*
X218641717Y-126115270D01*
X218009408Y-125482962D01*
X218072993Y-125465925D01*
X218187007Y-125400099D01*
X218280099Y-125307007D01*
X218345925Y-125192993D01*
X218362962Y-125129408D01*
X218995270Y-125761717D01*
X218995270Y-125761716D01*
X219034622Y-125707555D01*
X219039232Y-125698507D01*
X219087205Y-125647709D01*
X219155025Y-125630912D01*
X219221161Y-125653447D01*
X219260204Y-125698504D01*
X219264949Y-125707817D01*
X219389890Y-125879786D01*
X219540213Y-126030109D01*
X219712179Y-126155048D01*
X219712181Y-126155049D01*
X219712184Y-126155051D01*
X219901588Y-126251557D01*
X220103757Y-126317246D01*
X220313713Y-126350500D01*
X220313714Y-126350500D01*
X220526286Y-126350500D01*
X220526287Y-126350500D01*
X220736243Y-126317246D01*
X220938412Y-126251557D01*
X221127816Y-126155051D01*
X221214138Y-126092335D01*
X221299786Y-126030109D01*
X221299788Y-126030106D01*
X221299792Y-126030104D01*
X221450104Y-125879792D01*
X221450106Y-125879788D01*
X221450109Y-125879786D01*
X221575048Y-125707820D01*
X221575050Y-125707817D01*
X221575051Y-125707816D01*
X221579514Y-125699054D01*
X221627488Y-125648259D01*
X221695308Y-125631463D01*
X221761444Y-125653999D01*
X221800486Y-125699056D01*
X221804951Y-125707820D01*
X221929890Y-125879786D01*
X222080213Y-126030109D01*
X222252179Y-126155048D01*
X222252181Y-126155049D01*
X222252184Y-126155051D01*
X222441588Y-126251557D01*
X222643757Y-126317246D01*
X222853713Y-126350500D01*
X222853714Y-126350500D01*
X223066286Y-126350500D01*
X223066287Y-126350500D01*
X223276243Y-126317246D01*
X223478412Y-126251557D01*
X223667816Y-126155051D01*
X223839792Y-126030104D01*
X223953329Y-125916566D01*
X224014648Y-125883084D01*
X224084340Y-125888068D01*
X224140274Y-125929939D01*
X224157189Y-125960917D01*
X224206202Y-126092328D01*
X224206206Y-126092335D01*
X224292452Y-126207544D01*
X224292455Y-126207547D01*
X224407664Y-126293793D01*
X224407671Y-126293797D01*
X224542517Y-126344091D01*
X224542516Y-126344091D01*
X224549444Y-126344835D01*
X224602127Y-126350500D01*
X226397872Y-126350499D01*
X226457483Y-126344091D01*
X226592331Y-126293796D01*
X226707546Y-126207546D01*
X226793796Y-126092331D01*
X226844091Y-125957483D01*
X226850500Y-125897873D01*
X226850499Y-124102128D01*
X226844091Y-124042517D01*
X226842810Y-124039083D01*
X226793797Y-123907671D01*
X226793793Y-123907664D01*
X226707547Y-123792455D01*
X226707544Y-123792452D01*
X226592335Y-123706206D01*
X226592326Y-123706201D01*
X226457487Y-123655910D01*
X226457484Y-123655909D01*
X226457483Y-123655909D01*
X226457479Y-123655908D01*
X226457476Y-123655908D01*
X226425886Y-123652511D01*
X226416041Y-123651051D01*
X226410250Y-123649952D01*
X226397186Y-123646161D01*
X226370352Y-123642386D01*
X226367453Y-123641837D01*
X226353926Y-123634914D01*
X226317119Y-123619923D01*
X226295825Y-123604272D01*
X226277631Y-123587902D01*
X226227589Y-123533014D01*
X226214325Y-123515596D01*
X226153344Y-123418856D01*
X226145554Y-123404473D01*
X226130867Y-123372482D01*
X226126405Y-123361381D01*
X226114952Y-123328359D01*
X226111210Y-123315292D01*
X226109113Y-123306090D01*
X226106481Y-123289297D01*
X226104524Y-123266825D01*
X226100712Y-123234865D01*
X226100709Y-123234854D01*
X226059104Y-123097127D01*
X226059100Y-123097117D01*
X226055727Y-123089881D01*
X226055724Y-123089876D01*
X226055721Y-123089869D01*
X226012781Y-123015138D01*
X225965648Y-122964511D01*
X225914741Y-122909830D01*
X225788223Y-122834759D01*
X225740614Y-122783620D01*
X225727500Y-122728119D01*
X225727500Y-114697245D01*
X225727618Y-114691837D01*
X225730566Y-114624300D01*
X225744259Y-114310615D01*
X225745202Y-114299841D01*
X225794652Y-113924202D01*
X225796525Y-113913580D01*
X225878536Y-113543641D01*
X225881323Y-113533238D01*
X225995258Y-113171875D01*
X225998958Y-113161712D01*
X226029424Y-113088160D01*
X226143948Y-112811670D01*
X226148507Y-112801892D01*
X226323461Y-112465807D01*
X226328856Y-112456462D01*
X226532443Y-112136892D01*
X226538633Y-112128053D01*
X226769281Y-111827466D01*
X226776231Y-111819183D01*
X227032064Y-111539988D01*
X227039679Y-111532373D01*
X227319210Y-111276231D01*
X227327466Y-111269304D01*
X227628063Y-111038648D01*
X227636902Y-111032458D01*
X227956469Y-110828873D01*
X227965810Y-110823480D01*
X228301912Y-110648519D01*
X228311675Y-110643967D01*
X228661721Y-110498975D01*
X228671884Y-110495276D01*
X229033243Y-110381342D01*
X229043646Y-110378555D01*
X229413583Y-110296544D01*
X229424205Y-110294671D01*
X229799843Y-110245220D01*
X229810616Y-110244278D01*
X229909741Y-110239951D01*
X230192277Y-110227618D01*
X230197685Y-110227500D01*
X230239793Y-110227500D01*
X246834944Y-110227500D01*
X246901983Y-110247185D01*
X246946195Y-110296734D01*
X246977900Y-110361141D01*
X246977901Y-110361142D01*
X247069844Y-110471812D01*
X247127072Y-110510292D01*
X247189243Y-110552096D01*
X247189252Y-110552101D01*
X247196174Y-110555437D01*
X247197309Y-110555984D01*
X247247218Y-110576829D01*
X247388250Y-110605317D01*
X247388251Y-110605317D01*
X247392593Y-110606194D01*
X247392361Y-110607341D01*
X247434045Y-110621914D01*
X247436087Y-110623151D01*
X247436112Y-110623165D01*
X247436147Y-110623187D01*
X247533416Y-110680756D01*
X247552134Y-110690880D01*
X247567723Y-110699313D01*
X247567731Y-110699317D01*
X247567733Y-110699318D01*
X247569353Y-110700115D01*
X247579694Y-110704715D01*
X247605055Y-110715997D01*
X247669254Y-110741633D01*
X247689182Y-110748871D01*
X247699142Y-110752490D01*
X247700538Y-110752948D01*
X247731321Y-110761976D01*
X247802720Y-110780477D01*
X247815793Y-110783679D01*
X247816408Y-110783821D01*
X247846035Y-110788592D01*
X247883466Y-110794621D01*
X247883471Y-110794621D01*
X247883476Y-110794622D01*
X247883480Y-110794621D01*
X247885882Y-110794753D01*
X247903316Y-110796950D01*
X247921158Y-110800500D01*
X247921162Y-110800500D01*
X248078844Y-110800500D01*
X248078845Y-110800499D01*
X248233497Y-110769737D01*
X248379179Y-110709394D01*
X248510289Y-110621789D01*
X248621789Y-110510289D01*
X248709394Y-110379179D01*
X248769737Y-110233497D01*
X248800500Y-110078842D01*
X248800500Y-109921158D01*
X248800500Y-109921155D01*
X248800499Y-109921153D01*
X248789004Y-109863363D01*
X248769737Y-109766503D01*
X248754640Y-109730056D01*
X248709397Y-109620827D01*
X248709390Y-109620814D01*
X248621789Y-109489711D01*
X248621786Y-109489707D01*
X248510292Y-109378213D01*
X248510288Y-109378210D01*
X248379185Y-109290609D01*
X248379172Y-109290602D01*
X248233501Y-109230264D01*
X248233489Y-109230261D01*
X248078845Y-109199500D01*
X248078842Y-109199500D01*
X247921158Y-109199500D01*
X247863750Y-109210918D01*
X247849668Y-109213720D01*
X247838883Y-109215375D01*
X247803952Y-109219173D01*
X247735673Y-109236685D01*
X247706291Y-109245177D01*
X247704944Y-109245612D01*
X247676283Y-109255806D01*
X247613913Y-109280130D01*
X247577390Y-109296060D01*
X247575770Y-109296844D01*
X247540388Y-109315731D01*
X247438024Y-109375706D01*
X247434634Y-109377739D01*
X247382747Y-109394114D01*
X247382818Y-109394772D01*
X247380628Y-109395007D01*
X247380617Y-109395008D01*
X247360178Y-109397203D01*
X247344705Y-109398866D01*
X247206654Y-109439396D01*
X247199225Y-109442788D01*
X247120902Y-109487386D01*
X247120899Y-109487388D01*
X247015593Y-109585427D01*
X246940623Y-109711776D01*
X246889485Y-109759385D01*
X246833983Y-109772500D01*
X230137555Y-109772500D01*
X230137365Y-109772517D01*
X230001151Y-109772517D01*
X229615587Y-109802858D01*
X229233550Y-109863363D01*
X228857472Y-109953649D01*
X228489624Y-110073168D01*
X228132298Y-110221176D01*
X228132290Y-110221180D01*
X227787693Y-110396759D01*
X227787670Y-110396772D01*
X227457897Y-110598855D01*
X227457872Y-110598872D01*
X227144992Y-110826192D01*
X227144978Y-110826203D01*
X226850885Y-111077382D01*
X226850871Y-111077395D01*
X226750466Y-111177801D01*
X226750406Y-111177833D01*
X226577381Y-111350858D01*
X226577357Y-111350884D01*
X226326198Y-111644954D01*
X226326177Y-111644981D01*
X226098856Y-111957862D01*
X226098846Y-111957876D01*
X225896748Y-112287672D01*
X225896742Y-112287683D01*
X225721171Y-112632265D01*
X225721161Y-112632286D01*
X225573150Y-112989618D01*
X225453632Y-113357464D01*
X225363344Y-113733550D01*
X225355295Y-113784373D01*
X225302841Y-114115573D01*
X225302840Y-114115582D01*
X225302840Y-114115584D01*
X225272498Y-114501150D01*
X225272498Y-114501164D01*
X225272500Y-114649290D01*
X225272500Y-122727897D01*
X225252815Y-122794936D01*
X225200011Y-122840691D01*
X225196147Y-122842377D01*
X225175852Y-122850823D01*
X225057850Y-122933144D01*
X225057848Y-122933146D01*
X224967821Y-123045372D01*
X224967820Y-123045373D01*
X224963264Y-123053092D01*
X224963245Y-123053126D01*
X224938287Y-123101100D01*
X224898059Y-123239255D01*
X224889545Y-123299438D01*
X224883124Y-123324930D01*
X224854287Y-123403212D01*
X224847379Y-123418635D01*
X224829010Y-123453128D01*
X224823195Y-123462931D01*
X224792660Y-123509406D01*
X224785749Y-123518911D01*
X224756452Y-123555430D01*
X224747994Y-123564931D01*
X224719101Y-123594212D01*
X224708912Y-123603452D01*
X224692209Y-123616989D01*
X224679922Y-123625763D01*
X224679783Y-123625850D01*
X224627259Y-123644029D01*
X224623100Y-123644477D01*
X224620209Y-123644788D01*
X224593536Y-123648379D01*
X224588395Y-123649521D01*
X224588342Y-123649283D01*
X224571450Y-123652798D01*
X224542519Y-123655908D01*
X224542513Y-123655910D01*
X224407671Y-123706202D01*
X224407664Y-123706206D01*
X224292455Y-123792452D01*
X224292452Y-123792455D01*
X224206206Y-123907664D01*
X224206203Y-123907669D01*
X224157189Y-124039083D01*
X224115317Y-124095016D01*
X224049853Y-124119433D01*
X223981580Y-124104581D01*
X223953326Y-124083430D01*
X223839786Y-123969890D01*
X223667820Y-123844951D01*
X223478414Y-123748444D01*
X223478413Y-123748443D01*
X223478412Y-123748443D01*
X223276243Y-123682754D01*
X223276241Y-123682753D01*
X223276240Y-123682753D01*
X223106758Y-123655910D01*
X223066287Y-123649500D01*
X222853713Y-123649500D01*
X222813242Y-123655910D01*
X222643760Y-123682753D01*
X222441585Y-123748444D01*
X222252179Y-123844951D01*
X222080213Y-123969890D01*
X221929890Y-124120213D01*
X221804949Y-124292182D01*
X221800484Y-124300946D01*
X221752509Y-124351742D01*
X221684688Y-124368536D01*
X221618553Y-124345998D01*
X221579516Y-124300946D01*
X221575050Y-124292182D01*
X221450109Y-124120213D01*
X221299786Y-123969890D01*
X221127820Y-123844951D01*
X220938414Y-123748444D01*
X220938413Y-123748443D01*
X220938412Y-123748443D01*
X220736243Y-123682754D01*
X220736241Y-123682753D01*
X220736240Y-123682753D01*
X220566758Y-123655910D01*
X220526287Y-123649500D01*
X220313713Y-123649500D01*
X220273242Y-123655910D01*
X220103760Y-123682753D01*
X219901585Y-123748444D01*
X219712179Y-123844951D01*
X219540213Y-123969890D01*
X219389890Y-124120213D01*
X219264949Y-124292182D01*
X219260202Y-124301499D01*
X219212227Y-124352293D01*
X219144405Y-124369087D01*
X219078271Y-124346548D01*
X219039234Y-124301495D01*
X219034626Y-124292452D01*
X218995270Y-124238282D01*
X218995269Y-124238282D01*
X218362962Y-124870590D01*
X218345925Y-124807007D01*
X218280099Y-124692993D01*
X218187007Y-124599901D01*
X218072993Y-124534075D01*
X218009409Y-124517037D01*
X218641716Y-123884728D01*
X218587550Y-123845375D01*
X218398217Y-123748904D01*
X218196129Y-123683242D01*
X217986246Y-123650000D01*
X217773754Y-123650000D01*
X217563872Y-123683242D01*
X217563869Y-123683242D01*
X217361782Y-123748904D01*
X217172439Y-123845380D01*
X217118282Y-123884727D01*
X217118282Y-123884728D01*
X217750591Y-124517037D01*
X217687007Y-124534075D01*
X217572993Y-124599901D01*
X217479901Y-124692993D01*
X217414075Y-124807007D01*
X217397037Y-124870591D01*
X216764728Y-124238282D01*
X216764727Y-124238282D01*
X216725380Y-124292439D01*
X216628904Y-124481782D01*
X216563242Y-124683869D01*
X216563242Y-124683872D01*
X216530000Y-124893753D01*
X213600499Y-124893753D01*
X213600499Y-124102128D01*
X213594091Y-124042517D01*
X213557617Y-123944726D01*
X213543798Y-123907673D01*
X213543793Y-123907664D01*
X213457547Y-123792455D01*
X213457544Y-123792452D01*
X213342335Y-123706206D01*
X213342328Y-123706202D01*
X213207482Y-123655908D01*
X213207483Y-123655908D01*
X213147883Y-123649501D01*
X213147881Y-123649500D01*
X213147873Y-123649500D01*
X213147864Y-123649500D01*
X211352129Y-123649500D01*
X211352123Y-123649501D01*
X211292516Y-123655908D01*
X211157671Y-123706202D01*
X211157664Y-123706206D01*
X211042455Y-123792452D01*
X211042452Y-123792455D01*
X210956206Y-123907664D01*
X210956203Y-123907669D01*
X210907189Y-124039083D01*
X210865317Y-124095016D01*
X210799853Y-124119433D01*
X210731580Y-124104581D01*
X210703326Y-124083430D01*
X210589786Y-123969890D01*
X210417820Y-123844951D01*
X210228414Y-123748444D01*
X210228413Y-123748443D01*
X210228412Y-123748443D01*
X210026243Y-123682754D01*
X210026241Y-123682753D01*
X210026240Y-123682753D01*
X209856758Y-123655910D01*
X209816287Y-123649500D01*
X209603713Y-123649500D01*
X209563242Y-123655910D01*
X209393760Y-123682753D01*
X209191585Y-123748444D01*
X209002179Y-123844951D01*
X208830213Y-123969890D01*
X208679890Y-124120213D01*
X208554949Y-124292182D01*
X208550484Y-124300946D01*
X208502509Y-124351742D01*
X208434688Y-124368536D01*
X208368553Y-124345998D01*
X208329516Y-124300946D01*
X208325050Y-124292182D01*
X208200109Y-124120213D01*
X208049786Y-123969890D01*
X207877820Y-123844951D01*
X207688414Y-123748444D01*
X207688413Y-123748443D01*
X207688412Y-123748443D01*
X207486243Y-123682754D01*
X207486241Y-123682753D01*
X207486240Y-123682753D01*
X207316758Y-123655910D01*
X207276287Y-123649500D01*
X207063713Y-123649500D01*
X207023242Y-123655910D01*
X206853760Y-123682753D01*
X206651585Y-123748444D01*
X206462179Y-123844951D01*
X206290213Y-123969890D01*
X206139890Y-124120213D01*
X206014949Y-124292182D01*
X206010484Y-124300946D01*
X205962509Y-124351742D01*
X205894688Y-124368536D01*
X205828553Y-124345998D01*
X205789516Y-124300946D01*
X205785050Y-124292182D01*
X205660109Y-124120213D01*
X205509786Y-123969890D01*
X205337820Y-123844951D01*
X205148414Y-123748444D01*
X205148413Y-123748443D01*
X205148412Y-123748443D01*
X204946243Y-123682754D01*
X204946241Y-123682753D01*
X204946240Y-123682753D01*
X204776758Y-123655910D01*
X204736287Y-123649500D01*
X204523713Y-123649500D01*
X204483242Y-123655910D01*
X204313760Y-123682753D01*
X204111585Y-123748444D01*
X203922179Y-123844951D01*
X203750213Y-123969890D01*
X203599890Y-124120213D01*
X203474951Y-124292179D01*
X203378444Y-124481585D01*
X203312753Y-124683760D01*
X203279500Y-124893713D01*
X192851443Y-124893713D01*
X192859091Y-124865834D01*
X192864223Y-124722046D01*
X192828638Y-124582635D01*
X192828635Y-124582629D01*
X192827893Y-124579720D01*
X192830386Y-124509895D01*
X192860358Y-124461373D01*
X198337050Y-118984682D01*
X198398371Y-118951199D01*
X198464674Y-118954975D01*
X198532594Y-118978088D01*
X198659600Y-118989836D01*
X198675862Y-118991341D01*
X198675862Y-118991340D01*
X198675863Y-118991341D01*
X198817062Y-118963694D01*
X198825516Y-118960740D01*
X198875583Y-118940175D01*
X198903484Y-118921652D01*
X198999142Y-118858146D01*
X198999791Y-118859124D01*
X199039482Y-118839970D01*
X199041970Y-118839358D01*
X199151442Y-118811290D01*
X199188854Y-118800142D01*
X199190563Y-118799560D01*
X199227005Y-118785558D01*
X199290541Y-118758284D01*
X199319395Y-118744806D01*
X199320713Y-118744139D01*
X199348806Y-118728785D01*
X199412375Y-118691382D01*
X199424302Y-118684141D01*
X199424837Y-118683806D01*
X199479421Y-118644332D01*
X199479428Y-118644323D01*
X199481250Y-118642691D01*
X199495139Y-118631911D01*
X199510289Y-118621789D01*
X199621789Y-118510289D01*
X199709394Y-118379179D01*
X199769737Y-118233497D01*
X199800500Y-118078842D01*
X199800500Y-118046153D01*
X203324500Y-118046153D01*
X203324500Y-118203846D01*
X203355261Y-118358489D01*
X203355264Y-118358501D01*
X203415602Y-118504172D01*
X203415609Y-118504185D01*
X203503210Y-118635288D01*
X203503213Y-118635292D01*
X203614707Y-118746786D01*
X203614711Y-118746789D01*
X203745814Y-118834390D01*
X203745827Y-118834397D01*
X203809076Y-118860595D01*
X203891503Y-118894737D01*
X204026813Y-118921652D01*
X204046153Y-118925499D01*
X204046156Y-118925500D01*
X204046158Y-118925500D01*
X204203844Y-118925500D01*
X204203845Y-118925499D01*
X204358497Y-118894737D01*
X204490717Y-118839970D01*
X204504172Y-118834397D01*
X204504172Y-118834396D01*
X204504179Y-118834394D01*
X204635289Y-118746789D01*
X204746789Y-118635289D01*
X204787303Y-118574653D01*
X204793760Y-118565856D01*
X204805995Y-118550637D01*
X204815756Y-118538496D01*
X204851637Y-118477858D01*
X204866266Y-118451354D01*
X204866911Y-118450098D01*
X204880126Y-118422315D01*
X204907025Y-118361021D01*
X204921692Y-118323631D01*
X204922298Y-118321885D01*
X204933846Y-118283845D01*
X204963803Y-118169115D01*
X204964833Y-118165029D01*
X204989903Y-118116986D01*
X204989368Y-118116555D01*
X205013440Y-118086686D01*
X205013443Y-118086681D01*
X205082391Y-117960407D01*
X205082391Y-117960405D01*
X205082394Y-117960401D01*
X205085252Y-117952738D01*
X205109091Y-117865834D01*
X205114223Y-117722046D01*
X205078638Y-117582635D01*
X205078635Y-117582629D01*
X205077893Y-117579720D01*
X205080386Y-117509895D01*
X205110358Y-117461373D01*
X208050193Y-114521537D01*
X208111514Y-114488054D01*
X208181206Y-114493038D01*
X208217475Y-114514145D01*
X208243111Y-114535609D01*
X208243112Y-114535609D01*
X208243114Y-114535611D01*
X208374986Y-114593155D01*
X208383620Y-114595532D01*
X208436453Y-114607076D01*
X208436460Y-114607076D01*
X208441349Y-114607651D01*
X208453322Y-114611981D01*
X208462520Y-114612036D01*
X208483737Y-114622982D01*
X208494537Y-114626888D01*
X208498889Y-114629722D01*
X208513107Y-114640779D01*
X208527356Y-114651463D01*
X208528005Y-114651932D01*
X208588717Y-114689578D01*
X208593357Y-114691226D01*
X208603487Y-114697822D01*
X208603670Y-114698036D01*
X208604720Y-114698635D01*
X208620821Y-114709394D01*
X208620823Y-114709395D01*
X208620825Y-114709396D01*
X208730475Y-114754814D01*
X208766503Y-114769737D01*
X208921153Y-114800499D01*
X208921156Y-114800500D01*
X208921158Y-114800500D01*
X209078842Y-114800500D01*
X209150362Y-114786272D01*
X209161106Y-114784623D01*
X209196048Y-114780826D01*
X209264305Y-114763319D01*
X209293728Y-114754814D01*
X209295072Y-114754381D01*
X209323741Y-114744183D01*
X209386086Y-114719867D01*
X209422545Y-114703967D01*
X209424209Y-114703162D01*
X209459609Y-114684267D01*
X209561960Y-114624300D01*
X209565358Y-114622262D01*
X209617241Y-114605897D01*
X209617170Y-114605229D01*
X209619376Y-114604992D01*
X209655268Y-114601137D01*
X209793324Y-114560612D01*
X209800764Y-114557215D01*
X209879098Y-114512613D01*
X209984405Y-114414573D01*
X210057826Y-114290836D01*
X210057825Y-114290836D01*
X210059376Y-114288224D01*
X210110514Y-114240615D01*
X210166016Y-114227500D01*
X214194666Y-114227500D01*
X214194700Y-114227509D01*
X214246038Y-114227509D01*
X214246038Y-114227510D01*
X214468775Y-114227509D01*
X214912877Y-114192554D01*
X215352867Y-114122865D01*
X215786033Y-114018869D01*
X216209704Y-113881208D01*
X216621269Y-113710731D01*
X217018190Y-113508489D01*
X217398020Y-113275729D01*
X217758417Y-113013885D01*
X217792391Y-112984869D01*
X217995165Y-112811684D01*
X218097159Y-112724573D01*
X218254658Y-112567074D01*
X218286657Y-112535076D01*
X218286657Y-112535074D01*
X220773155Y-110048575D01*
X220773168Y-110048566D01*
X220815352Y-110006381D01*
X220818833Y-110003032D01*
X221114151Y-109730038D01*
X221121498Y-109723762D01*
X221435412Y-109476286D01*
X221443255Y-109470588D01*
X221775591Y-109248524D01*
X221783875Y-109243448D01*
X222132595Y-109048150D01*
X222141246Y-109043742D01*
X222504212Y-108876409D01*
X222513192Y-108872689D01*
X222888167Y-108734350D01*
X222897409Y-108731347D01*
X223282082Y-108622854D01*
X223291542Y-108620583D01*
X223683533Y-108542609D01*
X223693138Y-108541087D01*
X224090054Y-108494106D01*
X224099724Y-108493345D01*
X224500504Y-108477595D01*
X224505373Y-108477500D01*
X224549217Y-108477500D01*
X248834944Y-108477500D01*
X248901983Y-108497185D01*
X248946194Y-108546733D01*
X248954403Y-108563409D01*
X248977900Y-108611141D01*
X248987633Y-108622856D01*
X249069844Y-108721812D01*
X249127072Y-108760292D01*
X249189243Y-108802096D01*
X249189252Y-108802101D01*
X249196174Y-108805437D01*
X249197309Y-108805984D01*
X249247218Y-108826829D01*
X249388250Y-108855317D01*
X249388251Y-108855317D01*
X249392593Y-108856194D01*
X249392361Y-108857341D01*
X249434045Y-108871914D01*
X249436087Y-108873151D01*
X249436112Y-108873165D01*
X249436147Y-108873187D01*
X249533416Y-108930756D01*
X249552134Y-108940880D01*
X249567723Y-108949313D01*
X249567731Y-108949317D01*
X249567733Y-108949318D01*
X249569353Y-108950115D01*
X249590203Y-108959390D01*
X249605055Y-108965997D01*
X249669254Y-108991633D01*
X249689182Y-108998871D01*
X249699142Y-109002490D01*
X249700538Y-109002948D01*
X249731321Y-109011976D01*
X249802720Y-109030477D01*
X249815793Y-109033679D01*
X249816408Y-109033821D01*
X249846035Y-109038592D01*
X249883466Y-109044621D01*
X249883471Y-109044621D01*
X249883476Y-109044622D01*
X249883480Y-109044621D01*
X249885882Y-109044753D01*
X249903316Y-109046950D01*
X249921158Y-109050500D01*
X249921162Y-109050500D01*
X250078844Y-109050500D01*
X250078845Y-109050499D01*
X250233497Y-109019737D01*
X250379179Y-108959394D01*
X250510289Y-108871789D01*
X250621789Y-108760289D01*
X250709394Y-108629179D01*
X250769737Y-108483497D01*
X250800500Y-108328842D01*
X250800500Y-108171158D01*
X250800500Y-108171155D01*
X250800499Y-108171153D01*
X250796402Y-108150556D01*
X250769737Y-108016503D01*
X250745986Y-107959163D01*
X250709397Y-107870827D01*
X250709390Y-107870814D01*
X250621789Y-107739711D01*
X250621786Y-107739707D01*
X250510292Y-107628213D01*
X250510288Y-107628210D01*
X250379185Y-107540609D01*
X250379172Y-107540602D01*
X250233501Y-107480264D01*
X250233489Y-107480261D01*
X250078845Y-107449500D01*
X250078842Y-107449500D01*
X249921158Y-107449500D01*
X249863750Y-107460918D01*
X249849668Y-107463720D01*
X249838883Y-107465375D01*
X249803952Y-107469173D01*
X249735673Y-107486685D01*
X249706291Y-107495177D01*
X249704944Y-107495612D01*
X249676283Y-107505806D01*
X249613913Y-107530130D01*
X249577390Y-107546060D01*
X249575770Y-107546844D01*
X249540388Y-107565731D01*
X249438024Y-107625706D01*
X249434634Y-107627739D01*
X249382747Y-107644114D01*
X249382818Y-107644772D01*
X249380628Y-107645007D01*
X249380617Y-107645008D01*
X249360178Y-107647203D01*
X249344705Y-107648866D01*
X249206654Y-107689396D01*
X249199225Y-107692788D01*
X249120902Y-107737386D01*
X249120899Y-107737388D01*
X249015593Y-107835427D01*
X248940623Y-107961776D01*
X248889485Y-108009385D01*
X248833983Y-108022500D01*
X224555363Y-108022500D01*
X224555226Y-108022460D01*
X224503961Y-108022460D01*
X224468854Y-108022460D01*
X224281230Y-108022461D01*
X224281218Y-108022462D01*
X223837119Y-108057416D01*
X223397133Y-108127107D01*
X223397130Y-108127107D01*
X223397128Y-108127108D01*
X222963961Y-108231106D01*
X222963956Y-108231107D01*
X222540293Y-108368767D01*
X222128727Y-108539248D01*
X222128712Y-108539254D01*
X221731811Y-108741489D01*
X221731799Y-108741496D01*
X221351973Y-108974260D01*
X221351947Y-108974277D01*
X220991588Y-109236099D01*
X220991568Y-109236115D01*
X220652845Y-109525419D01*
X220652842Y-109525421D01*
X220509898Y-109668367D01*
X220509897Y-109668366D01*
X220495341Y-109682924D01*
X220469101Y-109709164D01*
X219145815Y-111032451D01*
X217964924Y-112213342D01*
X217934654Y-112243612D01*
X217931145Y-112246985D01*
X217635868Y-112519935D01*
X217628465Y-112526258D01*
X217314602Y-112773687D01*
X217306725Y-112779410D01*
X216974414Y-113001454D01*
X216966112Y-113006541D01*
X216617422Y-113201817D01*
X216608747Y-113206238D01*
X216245790Y-113373564D01*
X216236795Y-113377290D01*
X215861825Y-113515625D01*
X215852565Y-113518633D01*
X215467920Y-113627116D01*
X215458453Y-113629389D01*
X215066467Y-113707362D01*
X215056850Y-113708885D01*
X214659962Y-113755861D01*
X214650256Y-113756625D01*
X214248731Y-113772404D01*
X214243862Y-113772500D01*
X210165057Y-113772500D01*
X210098018Y-113752815D01*
X210053805Y-113703262D01*
X210022114Y-113638881D01*
X209930176Y-113528204D01*
X209930173Y-113528202D01*
X209846522Y-113471950D01*
X209810779Y-113447914D01*
X209802714Y-113444026D01*
X209802700Y-113444020D01*
X209752784Y-113423171D01*
X209752780Y-113423169D01*
X209752776Y-113423168D01*
X209752771Y-113423167D01*
X209752768Y-113423166D01*
X209607404Y-113393805D01*
X209607633Y-113392669D01*
X209566039Y-113378135D01*
X209563892Y-113376836D01*
X209536928Y-113360877D01*
X209466582Y-113319243D01*
X209463147Y-113317385D01*
X209432269Y-113300682D01*
X209430646Y-113299884D01*
X209394955Y-113284007D01*
X209330750Y-113258369D01*
X209330739Y-113258365D01*
X209330729Y-113258361D01*
X209300605Y-113247426D01*
X209299932Y-113247205D01*
X209299226Y-113246974D01*
X209268691Y-113238027D01*
X209197218Y-113219507D01*
X209184249Y-113216329D01*
X209183668Y-113216195D01*
X209183660Y-113216193D01*
X209183654Y-113216192D01*
X209183648Y-113216191D01*
X209183643Y-113216190D01*
X209154038Y-113211420D01*
X209116523Y-113205377D01*
X209116521Y-113205377D01*
X209116515Y-113205376D01*
X209114067Y-113205242D01*
X209096669Y-113203046D01*
X209090490Y-113201817D01*
X209078842Y-113199500D01*
X208921158Y-113199500D01*
X208921155Y-113199500D01*
X208766510Y-113230261D01*
X208766498Y-113230264D01*
X208620828Y-113290602D01*
X208620814Y-113290610D01*
X208580741Y-113317385D01*
X208573669Y-113321774D01*
X208569769Y-113324016D01*
X208541428Y-113337689D01*
X208515523Y-113355118D01*
X208511831Y-113357333D01*
X208511769Y-113357370D01*
X208463400Y-113386407D01*
X208431531Y-113399905D01*
X208348322Y-113422095D01*
X208312048Y-113433244D01*
X208184328Y-113499494D01*
X208177610Y-113504303D01*
X208177607Y-113504306D01*
X208108112Y-113564312D01*
X208108109Y-113564314D01*
X208023955Y-113681009D01*
X207997546Y-113755861D01*
X207976082Y-113816695D01*
X207974335Y-113825476D01*
X207974333Y-113825486D01*
X207974333Y-113825489D01*
X207974330Y-113825504D01*
X207966629Y-113879053D01*
X207966629Y-113879065D01*
X207968403Y-113912172D01*
X207967989Y-113913922D01*
X207968540Y-113915635D01*
X207959987Y-113947784D01*
X207952334Y-113980169D01*
X207950891Y-113981972D01*
X207950577Y-113983156D01*
X207945773Y-113988374D01*
X207928154Y-114010412D01*
X207923047Y-114015070D01*
X207887006Y-114041258D01*
X207823964Y-114104302D01*
X207823963Y-114104302D01*
X207812693Y-114115573D01*
X207810694Y-114117571D01*
X207810683Y-114117582D01*
X204787951Y-117140313D01*
X204726628Y-117173798D01*
X204660320Y-117170020D01*
X204592442Y-117146919D01*
X204592434Y-117146918D01*
X204449176Y-117133656D01*
X204449172Y-117133656D01*
X204449171Y-117133656D01*
X204346333Y-117153785D01*
X204307970Y-117161294D01*
X204299511Y-117164249D01*
X204249410Y-117184825D01*
X204125853Y-117266858D01*
X204125207Y-117265886D01*
X204085524Y-117285024D01*
X204083044Y-117285635D01*
X204061985Y-117291034D01*
X203973544Y-117313709D01*
X203936141Y-117324857D01*
X203934433Y-117325438D01*
X203897976Y-117339447D01*
X203834447Y-117366719D01*
X203805567Y-117380211D01*
X203804261Y-117380872D01*
X203776215Y-117396200D01*
X203712542Y-117433665D01*
X203700352Y-117441072D01*
X203699829Y-117441401D01*
X203699804Y-117441417D01*
X203645571Y-117480671D01*
X203643729Y-117482323D01*
X203629860Y-117493086D01*
X203614721Y-117503203D01*
X203614712Y-117503210D01*
X203503209Y-117614712D01*
X203415609Y-117745814D01*
X203415602Y-117745827D01*
X203355264Y-117891498D01*
X203355261Y-117891510D01*
X203324500Y-118046153D01*
X199800500Y-118046153D01*
X199800500Y-117921158D01*
X199800500Y-117921155D01*
X199800499Y-117921153D01*
X199769738Y-117766510D01*
X199769737Y-117766503D01*
X199761170Y-117745821D01*
X199709397Y-117620827D01*
X199709390Y-117620814D01*
X199621789Y-117489711D01*
X199621786Y-117489707D01*
X199510292Y-117378213D01*
X199510284Y-117378207D01*
X199449676Y-117337710D01*
X199440875Y-117331252D01*
X199413500Y-117309245D01*
X199369465Y-117283189D01*
X199352858Y-117273362D01*
X199339313Y-117265886D01*
X199326360Y-117258736D01*
X199325093Y-117258085D01*
X199297306Y-117244868D01*
X199236015Y-117217970D01*
X199198733Y-117203341D01*
X199197018Y-117202746D01*
X199158858Y-117191156D01*
X199092379Y-117173798D01*
X199044086Y-117161188D01*
X199043480Y-117161035D01*
X199039996Y-117160156D01*
X198991956Y-117135122D01*
X198991549Y-117135628D01*
X198961671Y-117111548D01*
X198961667Y-117111545D01*
X198835391Y-117042602D01*
X198835389Y-117042601D01*
X198835385Y-117042599D01*
X198827724Y-117039742D01*
X198796897Y-117031285D01*
X198740861Y-117015912D01*
X198740863Y-117015912D01*
X198597080Y-117010772D01*
X198597078Y-117010772D01*
X198597077Y-117010772D01*
X198597076Y-117010772D01*
X198457664Y-117046349D01*
X198457662Y-117046349D01*
X198454710Y-117047103D01*
X198384885Y-117044606D01*
X198336368Y-117014634D01*
X192755802Y-111434069D01*
X192755801Y-111434068D01*
X192738361Y-111416627D01*
X192726392Y-111404658D01*
X192708820Y-111387086D01*
X192708819Y-111387085D01*
X192704042Y-111382033D01*
X192676190Y-111350866D01*
X192525043Y-111181731D01*
X192516387Y-111170877D01*
X192362956Y-110954634D01*
X192355558Y-110942860D01*
X192323591Y-110885021D01*
X192227303Y-110710801D01*
X192221274Y-110698279D01*
X192119814Y-110453331D01*
X192115221Y-110440207D01*
X192097457Y-110378549D01*
X192079535Y-110316339D01*
X192079891Y-110246471D01*
X192117965Y-110187886D01*
X192131435Y-110177835D01*
X192179918Y-110146542D01*
X192273926Y-110037619D01*
X192278752Y-110030077D01*
X192305439Y-109982996D01*
X192336166Y-109890061D01*
X192375898Y-109832594D01*
X192414901Y-109811282D01*
X192419334Y-109809814D01*
X192568656Y-109717712D01*
X192692712Y-109593656D01*
X192784814Y-109444334D01*
X192839999Y-109277797D01*
X192850500Y-109175009D01*
X192850499Y-107824992D01*
X192839999Y-107722203D01*
X192784814Y-107555666D01*
X192692712Y-107406344D01*
X192568656Y-107282288D01*
X192419334Y-107190186D01*
X192252797Y-107135001D01*
X192252795Y-107135000D01*
X192150010Y-107124500D01*
X191349998Y-107124500D01*
X191349980Y-107124501D01*
X191247203Y-107135000D01*
X191247200Y-107135001D01*
X191080668Y-107190185D01*
X191080663Y-107190187D01*
X190931342Y-107282289D01*
X190807289Y-107406342D01*
X190807288Y-107406344D01*
X190768535Y-107469174D01*
X190767420Y-107470981D01*
X190715472Y-107517705D01*
X190646509Y-107528928D01*
X190582427Y-107501084D01*
X190574200Y-107493565D01*
X190466602Y-107385967D01*
X190326524Y-107284195D01*
X190172257Y-107205591D01*
X190007589Y-107152087D01*
X190007581Y-107152085D01*
X190000000Y-107150884D01*
X190000000Y-108219670D01*
X189980255Y-108199925D01*
X189894745Y-108150556D01*
X189799370Y-108125000D01*
X189700630Y-108125000D01*
X189605255Y-108150556D01*
X189519745Y-108199925D01*
X189500000Y-108219670D01*
X189500000Y-107150884D01*
X189499999Y-107150884D01*
X189492418Y-107152085D01*
X189492410Y-107152087D01*
X189327742Y-107205591D01*
X189173475Y-107284195D01*
X189033397Y-107385967D01*
X188910967Y-107508397D01*
X188809195Y-107648475D01*
X188730591Y-107802742D01*
X188677085Y-107967415D01*
X188650000Y-108138428D01*
X183000500Y-108138428D01*
X183000500Y-103882014D01*
X197870000Y-103882014D01*
X197870000Y-104117985D01*
X197900799Y-104351914D01*
X197961870Y-104579837D01*
X198052160Y-104797819D01*
X198052165Y-104797828D01*
X198170144Y-105002171D01*
X198170145Y-105002172D01*
X198232721Y-105083723D01*
X199068958Y-104247487D01*
X199093978Y-104307890D01*
X199165112Y-104414351D01*
X199255649Y-104504888D01*
X199362110Y-104576022D01*
X199422511Y-104601041D01*
X198586275Y-105437277D01*
X198667827Y-105499854D01*
X198667828Y-105499855D01*
X198872171Y-105617834D01*
X198872180Y-105617839D01*
X199090163Y-105708129D01*
X199090161Y-105708129D01*
X199318085Y-105769200D01*
X199552014Y-105799999D01*
X199552029Y-105800000D01*
X199787971Y-105800000D01*
X199787985Y-105799999D01*
X200021914Y-105769200D01*
X200249837Y-105708129D01*
X200467819Y-105617839D01*
X200467828Y-105617834D01*
X200672181Y-105499850D01*
X200753723Y-105437279D01*
X200753723Y-105437276D01*
X199917487Y-104601041D01*
X199977890Y-104576022D01*
X200084351Y-104504888D01*
X200174888Y-104414351D01*
X200246022Y-104307890D01*
X200271041Y-104247488D01*
X201107276Y-105083723D01*
X201107279Y-105083723D01*
X201169850Y-105002181D01*
X201287834Y-104797828D01*
X201287839Y-104797819D01*
X201378129Y-104579837D01*
X201439200Y-104351914D01*
X201469999Y-104117985D01*
X201470000Y-104117971D01*
X201470000Y-103882028D01*
X201469999Y-103882014D01*
X201439200Y-103648085D01*
X201378129Y-103420162D01*
X201338419Y-103324292D01*
X201319652Y-103278984D01*
X202949500Y-103278984D01*
X202949500Y-104721015D01*
X202955650Y-104809624D01*
X202955652Y-104809640D01*
X203004465Y-105017176D01*
X203004467Y-105017182D01*
X203004468Y-105017185D01*
X203090591Y-105212237D01*
X203090592Y-105212238D01*
X203211088Y-105388141D01*
X203211093Y-105388147D01*
X203361852Y-105538906D01*
X203361858Y-105538911D01*
X203537763Y-105659409D01*
X203732815Y-105745532D01*
X203732821Y-105745533D01*
X203732823Y-105745534D01*
X203940359Y-105794347D01*
X203940364Y-105794347D01*
X203940370Y-105794349D01*
X203989602Y-105797766D01*
X204028984Y-105800500D01*
X204028988Y-105800500D01*
X205471016Y-105800500D01*
X205506459Y-105798039D01*
X205559630Y-105794349D01*
X205559636Y-105794347D01*
X205559640Y-105794347D01*
X205767176Y-105745534D01*
X205767174Y-105745534D01*
X205767185Y-105745532D01*
X205962237Y-105659409D01*
X206138142Y-105538911D01*
X206288911Y-105388142D01*
X206409409Y-105212237D01*
X206495532Y-105017185D01*
X206544349Y-104809630D01*
X206550500Y-104721012D01*
X206550500Y-103278988D01*
X206544349Y-103190370D01*
X206544347Y-103190364D01*
X206544347Y-103190359D01*
X206495534Y-102982823D01*
X206495532Y-102982817D01*
X206495532Y-102982815D01*
X206409409Y-102787763D01*
X206288911Y-102611858D01*
X206288906Y-102611852D01*
X206138147Y-102461093D01*
X206138141Y-102461088D01*
X205962238Y-102340592D01*
X205962239Y-102340592D01*
X205962237Y-102340591D01*
X205767185Y-102254468D01*
X205767183Y-102254467D01*
X205767182Y-102254467D01*
X205767176Y-102254465D01*
X205559640Y-102205652D01*
X205559624Y-102205650D01*
X205471016Y-102199500D01*
X205471012Y-102199500D01*
X204028988Y-102199500D01*
X204028984Y-102199500D01*
X203940375Y-102205650D01*
X203940359Y-102205652D01*
X203732823Y-102254465D01*
X203732817Y-102254467D01*
X203537761Y-102340592D01*
X203361858Y-102461088D01*
X203361852Y-102461093D01*
X203211093Y-102611852D01*
X203211088Y-102611858D01*
X203090592Y-102787761D01*
X203004467Y-102982817D01*
X203004465Y-102982823D01*
X202955652Y-103190359D01*
X202955650Y-103190375D01*
X202949500Y-103278984D01*
X201319652Y-103278984D01*
X201287839Y-103202180D01*
X201287834Y-103202171D01*
X201169855Y-102997828D01*
X201169854Y-102997827D01*
X201107277Y-102916275D01*
X200271041Y-103752511D01*
X200246022Y-103692110D01*
X200174888Y-103585649D01*
X200084351Y-103495112D01*
X199977890Y-103423978D01*
X199917488Y-103398958D01*
X200753723Y-102562721D01*
X200672172Y-102500145D01*
X200672171Y-102500144D01*
X200467828Y-102382165D01*
X200467819Y-102382160D01*
X200249836Y-102291870D01*
X200249838Y-102291870D01*
X200021914Y-102230799D01*
X199787985Y-102200000D01*
X199552014Y-102200000D01*
X199318085Y-102230799D01*
X199090162Y-102291870D01*
X198872180Y-102382160D01*
X198872171Y-102382165D01*
X198667828Y-102500144D01*
X198667818Y-102500150D01*
X198586275Y-102562720D01*
X198586275Y-102562721D01*
X199422512Y-103398958D01*
X199362110Y-103423978D01*
X199255649Y-103495112D01*
X199165112Y-103585649D01*
X199093978Y-103692110D01*
X199068958Y-103752511D01*
X198232721Y-102916275D01*
X198232720Y-102916275D01*
X198170150Y-102997818D01*
X198170144Y-102997828D01*
X198052165Y-103202171D01*
X198052160Y-103202180D01*
X197961870Y-103420162D01*
X197900799Y-103648085D01*
X197870000Y-103882014D01*
X183000500Y-103882014D01*
X183000500Y-97647648D01*
X198699500Y-97647648D01*
X198699500Y-97852351D01*
X198731522Y-98054534D01*
X198794781Y-98249223D01*
X198887715Y-98431613D01*
X199008028Y-98597213D01*
X199152786Y-98741971D01*
X199239843Y-98805220D01*
X199318390Y-98862287D01*
X199434607Y-98921503D01*
X199500776Y-98955218D01*
X199500778Y-98955218D01*
X199500781Y-98955220D01*
X199605137Y-98989127D01*
X199695465Y-99018477D01*
X199796557Y-99034488D01*
X199897648Y-99050500D01*
X199897649Y-99050500D01*
X200102351Y-99050500D01*
X200102352Y-99050500D01*
X200304534Y-99018477D01*
X200499219Y-98955220D01*
X200681610Y-98862287D01*
X200774590Y-98794732D01*
X200847213Y-98741971D01*
X200847215Y-98741968D01*
X200847219Y-98741966D01*
X200991966Y-98597219D01*
X200991968Y-98597215D01*
X200991971Y-98597213D01*
X201100946Y-98447219D01*
X201112287Y-98431610D01*
X201205220Y-98249219D01*
X201268477Y-98054534D01*
X201300500Y-97852352D01*
X201300500Y-97647648D01*
X201276742Y-97497648D01*
X243949500Y-97497648D01*
X243949500Y-97702351D01*
X243981522Y-97904534D01*
X244044781Y-98099223D01*
X244137715Y-98281613D01*
X244258028Y-98447213D01*
X244402786Y-98591971D01*
X244557749Y-98704556D01*
X244568390Y-98712287D01*
X244684607Y-98771503D01*
X244750776Y-98805218D01*
X244750778Y-98805218D01*
X244750781Y-98805220D01*
X244855137Y-98839127D01*
X244945465Y-98868477D01*
X245046557Y-98884488D01*
X245147648Y-98900500D01*
X245147649Y-98900500D01*
X245352351Y-98900500D01*
X245352352Y-98900500D01*
X245554534Y-98868477D01*
X245749219Y-98805220D01*
X245931610Y-98712287D01*
X246024590Y-98644732D01*
X246097213Y-98591971D01*
X246097215Y-98591968D01*
X246097219Y-98591966D01*
X246241966Y-98447219D01*
X246241968Y-98447215D01*
X246241971Y-98447213D01*
X246294732Y-98374590D01*
X246362287Y-98281610D01*
X246455220Y-98099219D01*
X246518477Y-97904534D01*
X246550500Y-97702352D01*
X246550500Y-97497648D01*
X246518477Y-97295466D01*
X246503956Y-97250776D01*
X246455218Y-97100776D01*
X246421503Y-97034607D01*
X246362287Y-96918390D01*
X246350950Y-96902786D01*
X246241971Y-96752786D01*
X246097213Y-96608028D01*
X245931613Y-96487715D01*
X245931612Y-96487714D01*
X245931610Y-96487713D01*
X245856613Y-96449500D01*
X245749223Y-96394781D01*
X245554534Y-96331522D01*
X245379995Y-96303878D01*
X245352352Y-96299500D01*
X245147648Y-96299500D01*
X245123329Y-96303351D01*
X244945465Y-96331522D01*
X244750776Y-96394781D01*
X244568386Y-96487715D01*
X244402786Y-96608028D01*
X244258028Y-96752786D01*
X244137715Y-96918386D01*
X244044781Y-97100776D01*
X243981522Y-97295465D01*
X243949500Y-97497648D01*
X201276742Y-97497648D01*
X201268477Y-97445466D01*
X201205220Y-97250781D01*
X201205218Y-97250778D01*
X201205218Y-97250776D01*
X201171503Y-97184607D01*
X201112287Y-97068390D01*
X201104556Y-97057749D01*
X200991971Y-96902786D01*
X200847213Y-96758028D01*
X200681613Y-96637715D01*
X200681612Y-96637714D01*
X200681610Y-96637713D01*
X200623350Y-96608028D01*
X200499223Y-96544781D01*
X200304534Y-96481522D01*
X200129995Y-96453878D01*
X200102352Y-96449500D01*
X199897648Y-96449500D01*
X199873329Y-96453351D01*
X199695465Y-96481522D01*
X199500776Y-96544781D01*
X199318386Y-96637715D01*
X199152786Y-96758028D01*
X199008028Y-96902786D01*
X198887715Y-97068386D01*
X198794781Y-97250776D01*
X198731522Y-97445465D01*
X198699500Y-97647648D01*
X183000500Y-97647648D01*
X183000500Y-59504427D01*
X183000816Y-59495581D01*
X183015130Y-59295443D01*
X183015131Y-59295434D01*
X183017646Y-59277938D01*
X183059356Y-59086199D01*
X183064333Y-59069248D01*
X183132911Y-58885385D01*
X183140259Y-58869298D01*
X183202815Y-58754734D01*
X183234291Y-58697089D01*
X183243845Y-58682221D01*
X183361448Y-58525123D01*
X183373020Y-58511769D01*
X183511769Y-58373020D01*
X183525123Y-58361448D01*
X183682221Y-58243845D01*
X183697089Y-58234291D01*
X183869298Y-58140258D01*
X183885385Y-58132911D01*
X184069248Y-58064333D01*
X184086199Y-58059356D01*
X184277938Y-58017646D01*
X184295436Y-58015130D01*
X184495582Y-58000816D01*
X184504428Y-58000500D01*
X184565892Y-58000500D01*
X260434108Y-58000500D01*
X260495572Y-58000500D01*
X260504418Y-58000816D01*
G37*
%TD.AperFunction*%
%TD*%
%TA.AperFunction,Conductor*%
%TO.N,+3V3*%
G36*
X225597547Y-123303427D02*
G01*
X225600930Y-123310685D01*
X225606640Y-123376259D01*
X225606641Y-123376263D01*
X225626039Y-123461355D01*
X225626041Y-123461362D01*
X225658784Y-123555765D01*
X225703523Y-123653211D01*
X225803576Y-123811937D01*
X225816449Y-123832358D01*
X225945729Y-123974158D01*
X225946140Y-123974608D01*
X225946142Y-123974610D01*
X226080797Y-124073582D01*
X226080800Y-124073584D01*
X226215516Y-124131085D01*
X226326784Y-124146734D01*
X226334498Y-124151280D01*
X226336739Y-124159950D01*
X226333431Y-124166588D01*
X225508278Y-124992712D01*
X225500007Y-124996144D01*
X225491732Y-124992722D01*
X225491722Y-124992712D01*
X224667267Y-124167287D01*
X224663845Y-124159012D01*
X224667277Y-124150741D01*
X224674291Y-124147387D01*
X224752923Y-124138929D01*
X224829095Y-124116396D01*
X224902041Y-124083121D01*
X224980774Y-124033790D01*
X225054356Y-123974158D01*
X225130518Y-123896973D01*
X225198736Y-123811938D01*
X225261573Y-123716299D01*
X225313769Y-123618285D01*
X225380661Y-123436697D01*
X225389211Y-123376263D01*
X225398577Y-123310061D01*
X225403129Y-123302350D01*
X225410162Y-123300000D01*
X225589274Y-123300000D01*
X225597547Y-123303427D01*
G37*
%TD.AperFunction*%
%TD*%
%TA.AperFunction,Conductor*%
%TO.N,GND*%
G36*
X203385502Y-114795146D02*
G01*
X203446109Y-114824232D01*
X203536710Y-114891583D01*
X203604100Y-114942967D01*
X203685185Y-114972972D01*
X203739968Y-114975734D01*
X203807380Y-114967186D01*
X203846406Y-115163340D01*
X203683296Y-115210071D01*
X203577474Y-115262539D01*
X203482765Y-115310393D01*
X203408042Y-115337307D01*
X203308527Y-115361736D01*
X203249020Y-115067695D01*
X203308527Y-114773264D01*
X203385502Y-114795146D01*
G37*
%TD.AperFunction*%
%TD*%
%TA.AperFunction,Conductor*%
%TO.N,+3V3*%
G36*
X247938405Y-109710088D02*
G01*
X247943780Y-109717250D01*
X247943915Y-109717837D01*
X248000530Y-109997680D01*
X248000530Y-110002320D01*
X247943921Y-110282132D01*
X247938921Y-110289561D01*
X247930133Y-110291280D01*
X247929518Y-110291138D01*
X247894762Y-110282132D01*
X247858119Y-110272637D01*
X247856723Y-110272179D01*
X247828669Y-110260976D01*
X247792503Y-110246535D01*
X247790883Y-110245738D01*
X247693614Y-110188169D01*
X247693203Y-110187914D01*
X247653308Y-110162020D01*
X247554518Y-110117663D01*
X247554517Y-110117662D01*
X247488991Y-110104708D01*
X247416803Y-110100624D01*
X247408737Y-110096736D01*
X247405764Y-110088943D01*
X247405764Y-109910893D01*
X247409191Y-109902620D01*
X247416628Y-109899224D01*
X247506574Y-109892800D01*
X247581776Y-109873464D01*
X247640883Y-109845383D01*
X247693254Y-109812050D01*
X247693541Y-109811874D01*
X247795939Y-109751879D01*
X247797584Y-109751083D01*
X247859956Y-109726758D01*
X247861266Y-109726336D01*
X247929541Y-109708824D01*
X247938405Y-109710088D01*
G37*
%TD.AperFunction*%
%TD*%
%TA.AperFunction,Conductor*%
%TO.N,+VSW*%
G36*
X209070459Y-113708856D02*
G01*
X209141889Y-113727365D01*
X209143266Y-113727816D01*
X209207495Y-113753464D01*
X209209115Y-113754261D01*
X209306384Y-113811830D01*
X209306793Y-113812083D01*
X209346690Y-113837978D01*
X209346694Y-113837980D01*
X209346693Y-113837980D01*
X209445481Y-113882336D01*
X209445482Y-113882337D01*
X209445485Y-113882337D01*
X209445486Y-113882338D01*
X209511011Y-113895292D01*
X209583198Y-113899375D01*
X209591263Y-113903263D01*
X209594236Y-113911056D01*
X209594236Y-114089106D01*
X209590809Y-114097379D01*
X209583369Y-114100776D01*
X209493426Y-114107199D01*
X209418228Y-114126534D01*
X209418226Y-114126534D01*
X209359112Y-114154618D01*
X209306787Y-114187922D01*
X209306420Y-114188147D01*
X209204069Y-114248114D01*
X209202405Y-114248919D01*
X209140060Y-114273235D01*
X209138716Y-114273668D01*
X209070459Y-114291175D01*
X209061594Y-114289911D01*
X209056219Y-114282749D01*
X209056084Y-114282162D01*
X209049359Y-114248919D01*
X208999469Y-114002318D01*
X208999469Y-113997680D01*
X209019357Y-113899375D01*
X209056078Y-113717866D01*
X209061078Y-113710438D01*
X209069866Y-113708719D01*
X209070459Y-113708856D01*
G37*
%TD.AperFunction*%
%TD*%
%TA.AperFunction,Conductor*%
%TO.N,+VSW*%
G36*
X249938405Y-107960088D02*
G01*
X249943780Y-107967250D01*
X249943915Y-107967837D01*
X250000530Y-108247680D01*
X250000530Y-108252320D01*
X249943921Y-108532132D01*
X249938921Y-108539561D01*
X249930133Y-108541280D01*
X249929518Y-108541138D01*
X249894762Y-108532132D01*
X249858119Y-108522637D01*
X249856723Y-108522179D01*
X249828669Y-108510976D01*
X249792503Y-108496535D01*
X249790883Y-108495738D01*
X249693614Y-108438169D01*
X249693203Y-108437914D01*
X249653308Y-108412020D01*
X249554518Y-108367663D01*
X249554517Y-108367662D01*
X249488991Y-108354708D01*
X249416803Y-108350624D01*
X249408737Y-108346736D01*
X249405764Y-108338943D01*
X249405764Y-108160893D01*
X249409191Y-108152620D01*
X249416628Y-108149224D01*
X249506574Y-108142800D01*
X249581776Y-108123464D01*
X249640883Y-108095383D01*
X249693254Y-108062050D01*
X249693541Y-108061874D01*
X249795939Y-108001879D01*
X249797584Y-108001083D01*
X249859956Y-107976758D01*
X249861266Y-107976336D01*
X249929541Y-107958824D01*
X249938405Y-107960088D01*
G37*
%TD.AperFunction*%
%TD*%
%TA.AperFunction,Conductor*%
%TO.N,+BATT*%
G36*
X191756309Y-108510550D02*
G01*
X191759672Y-108513913D01*
X192267968Y-109288355D01*
X192269643Y-109297152D01*
X192264607Y-109304556D01*
X192261303Y-109306052D01*
X192167092Y-109332084D01*
X192167081Y-109332088D01*
X192100512Y-109366755D01*
X192100511Y-109366755D01*
X192040967Y-109410356D01*
X191983345Y-109466905D01*
X191935445Y-109529033D01*
X191935441Y-109529038D01*
X191897366Y-109594700D01*
X191897355Y-109594722D01*
X191870356Y-109660102D01*
X191852961Y-109757621D01*
X191848135Y-109765163D01*
X191842753Y-109767192D01*
X191665164Y-109787201D01*
X191656559Y-109784722D01*
X191652276Y-109777263D01*
X191650808Y-109767192D01*
X191643410Y-109716444D01*
X191643408Y-109716439D01*
X191643408Y-109716436D01*
X191622087Y-109648750D01*
X191622086Y-109648748D01*
X191592588Y-109594722D01*
X191549343Y-109515517D01*
X191451689Y-109408409D01*
X191451688Y-109408408D01*
X191451687Y-109408407D01*
X191341414Y-109336909D01*
X191341415Y-109336909D01*
X191238300Y-109306258D01*
X191231346Y-109300616D01*
X191230419Y-109291709D01*
X191231849Y-109288627D01*
X191740108Y-108513914D01*
X191747512Y-108508877D01*
X191756309Y-108510550D01*
G37*
%TD.AperFunction*%
%TD*%
%TA.AperFunction,Conductor*%
%TO.N,+BATT*%
G36*
X192232295Y-124641920D02*
G01*
X192358194Y-124767819D01*
X192361621Y-124776092D01*
X192358763Y-124783755D01*
X192299703Y-124851899D01*
X192260200Y-124918748D01*
X192238265Y-124980390D01*
X192224803Y-125040987D01*
X192224701Y-125041406D01*
X192194744Y-125156136D01*
X192194138Y-125157882D01*
X192167239Y-125219176D01*
X192166594Y-125220432D01*
X192130713Y-125281070D01*
X192123551Y-125286445D01*
X192114686Y-125285181D01*
X192114188Y-125284868D01*
X191922789Y-125157882D01*
X191876265Y-125127015D01*
X191872984Y-125123734D01*
X191777885Y-124980397D01*
X191715154Y-124885847D01*
X191713436Y-124877060D01*
X191718436Y-124869631D01*
X191718935Y-124869318D01*
X191782549Y-124831888D01*
X191783849Y-124831230D01*
X191847396Y-124803950D01*
X191849102Y-124803369D01*
X191958590Y-124775297D01*
X191959031Y-124775193D01*
X192005579Y-124765287D01*
X192106806Y-124726795D01*
X192162299Y-124689622D01*
X192216230Y-124641465D01*
X192224683Y-124638512D01*
X192232295Y-124641920D01*
G37*
%TD.AperFunction*%
%TD*%
%TA.AperFunction,Conductor*%
%TO.N,+BATT*%
G36*
X198658753Y-117516235D02*
G01*
X198726897Y-117575294D01*
X198793746Y-117614797D01*
X198793749Y-117614798D01*
X198793748Y-117614798D01*
X198816036Y-117622729D01*
X198855397Y-117636736D01*
X198916013Y-117650201D01*
X198916375Y-117650289D01*
X199031141Y-117680256D01*
X199032877Y-117680859D01*
X199074891Y-117699297D01*
X199094176Y-117707760D01*
X199095432Y-117708405D01*
X199156070Y-117744286D01*
X199161445Y-117751448D01*
X199160181Y-117760313D01*
X199159861Y-117760823D01*
X199002015Y-117998734D01*
X198998734Y-118002015D01*
X198760848Y-118159844D01*
X198752060Y-118161563D01*
X198744631Y-118156563D01*
X198744308Y-118156047D01*
X198706891Y-118092456D01*
X198706226Y-118091141D01*
X198678951Y-118027604D01*
X198678369Y-118025895D01*
X198650301Y-117916424D01*
X198650190Y-117915953D01*
X198640287Y-117869420D01*
X198601795Y-117768194D01*
X198564622Y-117712701D01*
X198516466Y-117658770D01*
X198513512Y-117650316D01*
X198516919Y-117642705D01*
X198642820Y-117516804D01*
X198651092Y-117513378D01*
X198658753Y-117516235D01*
G37*
%TD.AperFunction*%
%TD*%
%TA.AperFunction,Conductor*%
%TO.N,+VSW*%
G36*
X208839858Y-113760266D02*
G01*
X208839859Y-113760268D01*
X208996590Y-113993279D01*
X208998364Y-114002056D01*
X208996595Y-114006332D01*
X208840322Y-114239027D01*
X208832865Y-114243985D01*
X208824086Y-114242217D01*
X208823437Y-114241748D01*
X208735935Y-114173697D01*
X208735693Y-114173503D01*
X208693989Y-114139218D01*
X208693987Y-114139216D01*
X208693986Y-114139216D01*
X208625590Y-114105635D01*
X208625589Y-114105634D01*
X208574457Y-114101103D01*
X208574456Y-114101103D01*
X208517796Y-114108164D01*
X208509162Y-114105787D01*
X208504875Y-114098839D01*
X208470118Y-113924113D01*
X208471865Y-113915332D01*
X208478577Y-113910527D01*
X208647505Y-113865478D01*
X208786889Y-113781805D01*
X208823621Y-113757090D01*
X208832396Y-113755315D01*
X208839858Y-113760266D01*
G37*
%TD.AperFunction*%
%TD*%
%TA.AperFunction,Conductor*%
%TO.N,GND*%
G36*
X208501000Y-112250000D02*
G01*
X208441473Y-112544236D01*
X208357406Y-112522452D01*
X208291663Y-112496200D01*
X208193409Y-112438048D01*
X208153310Y-112412022D01*
X208054514Y-112367662D01*
X207988989Y-112354708D01*
X207905764Y-112350000D01*
X207905764Y-112150000D01*
X208006574Y-112142800D01*
X208081776Y-112123464D01*
X208140883Y-112095383D01*
X208193409Y-112061952D01*
X208296727Y-112001418D01*
X208360601Y-111976507D01*
X208441473Y-111955764D01*
X208501000Y-112250000D01*
G37*
%TD.AperFunction*%
%TD*%
%TA.AperFunction,Conductor*%
%TO.N,+VSW*%
G36*
X204482295Y-117641920D02*
G01*
X204608194Y-117767819D01*
X204611621Y-117776092D01*
X204608763Y-117783755D01*
X204549703Y-117851899D01*
X204510200Y-117918748D01*
X204488265Y-117980390D01*
X204474803Y-118040987D01*
X204474701Y-118041406D01*
X204444744Y-118156136D01*
X204444138Y-118157882D01*
X204417239Y-118219176D01*
X204416594Y-118220432D01*
X204380713Y-118281070D01*
X204373551Y-118286445D01*
X204364686Y-118285181D01*
X204364188Y-118284868D01*
X204172789Y-118157882D01*
X204126265Y-118127015D01*
X204122984Y-118123734D01*
X204027885Y-117980397D01*
X203965154Y-117885847D01*
X203963436Y-117877060D01*
X203968436Y-117869631D01*
X203968935Y-117869318D01*
X204032549Y-117831888D01*
X204033849Y-117831230D01*
X204097396Y-117803950D01*
X204099102Y-117803369D01*
X204208590Y-117775297D01*
X204209031Y-117775193D01*
X204255579Y-117765287D01*
X204356806Y-117726795D01*
X204412299Y-117689622D01*
X204466230Y-117641465D01*
X204474683Y-117638512D01*
X204482295Y-117641920D01*
G37*
%TD.AperFunction*%
%TD*%
%TA.AperFunction,Conductor*%
%TO.N,+BATT*%
G36*
X198760313Y-117839818D02*
G01*
X198760801Y-117840124D01*
X198952210Y-117967117D01*
X198998734Y-117997984D01*
X199002015Y-118001265D01*
X199159844Y-118239151D01*
X199161563Y-118247939D01*
X199156563Y-118255368D01*
X199156028Y-118255703D01*
X199092459Y-118293106D01*
X199091141Y-118293773D01*
X199027605Y-118321047D01*
X199025896Y-118321629D01*
X198916424Y-118349697D01*
X198915954Y-118349808D01*
X198885703Y-118356246D01*
X198869420Y-118359712D01*
X198869417Y-118359712D01*
X198869417Y-118359713D01*
X198768193Y-118398205D01*
X198712705Y-118435374D01*
X198658770Y-118483533D01*
X198650316Y-118486487D01*
X198642704Y-118483079D01*
X198516805Y-118357180D01*
X198513378Y-118348907D01*
X198516235Y-118341246D01*
X198575294Y-118273102D01*
X198614797Y-118206254D01*
X198636736Y-118144603D01*
X198650204Y-118083974D01*
X198650286Y-118083638D01*
X198680257Y-117968854D01*
X198680857Y-117967125D01*
X198707761Y-117905819D01*
X198708405Y-117904567D01*
X198744287Y-117843928D01*
X198751448Y-117838554D01*
X198760313Y-117839818D01*
G37*
%TD.AperFunction*%
%TD*%
M02*
